<svg width="50" height="48" viewBox="0 0 50 48" fill="none" xmlns="http://www.w3.org/2000/svg">
<path d="M25.4276 0.476074C30.1238 0.476074 34.2926 1.44594 37.9338 3.38568C41.6091 5.2914 44.4677 7.92876 46.5095 11.2978C48.5514 14.6668 49.5723 18.4782 49.5723 22.732C49.5723 25.7267 49.1299 28.313 48.2451 30.491C47.3943 32.6349 46.1862 34.2684 44.6208 35.3914C43.0554 36.5144 41.2178 37.0759 39.1079 37.0759C37.3723 37.0759 35.909 36.7016 34.7179 35.9529C33.5269 35.2042 32.6591 34.0982 32.1146 32.6349C30.277 35.5956 27.3673 37.0759 23.3858 37.0759C21.2078 37.0759 19.217 36.5314 17.4134 35.4424C15.6098 34.3535 14.1805 32.8391 13.1256 30.8994C12.1046 28.9256 11.5942 26.6796 11.5942 24.1613C11.5942 21.6771 12.1046 19.4651 13.1256 17.5254C14.1805 15.5516 15.5928 14.0202 17.3624 12.9312C19.166 11.8423 21.1738 11.2978 23.3858 11.2978C26.7548 11.2978 29.3751 12.4208 31.2468 14.6668V11.6551H38.1891V28.1939C38.1891 30.3719 39.0058 31.4609 40.6393 31.4609C41.8303 31.4609 42.7491 30.7462 43.3957 29.317C44.0763 27.8877 44.4166 25.7267 44.4166 22.8341C44.4166 19.397 43.6169 16.3683 42.0175 13.748C40.4521 11.0936 38.2231 9.03475 35.3305 7.57144C32.4719 6.0741 29.171 5.32543 25.4276 5.32543C21.6842 5.32543 18.3663 6.12514 15.4737 7.72458C12.6151 9.28998 10.3861 11.4679 8.78667 14.2584C7.22127 17.0489 6.43857 20.2138 6.43857 23.753C6.43857 27.3602 7.22127 30.5761 8.78667 33.4006C10.3521 36.1911 12.547 38.3691 15.3716 39.9345C18.2301 41.5339 21.5141 42.3336 25.2234 42.3336C28.8987 42.3336 32.2507 41.585 35.2794 40.0876L36.9129 44.7838C35.3815 45.5665 33.5609 46.1621 31.451 46.5704C29.3752 47.0128 27.2993 47.234 25.2234 47.234C20.3911 47.234 16.1203 46.2131 12.4109 44.1713C8.7016 42.1635 5.82602 39.373 3.78418 35.7998C1.74235 32.2266 0.721436 28.211 0.721436 23.753C0.721436 19.329 1.74235 15.3474 3.78418 11.8082C5.86005 8.26907 8.76966 5.49558 12.513 3.48778C16.2564 1.47998 20.5612 0.476074 25.4276 0.476074ZM24.9682 31.2056C26.8399 31.2056 28.3712 30.5931 29.5623 29.368C30.7534 28.1089 31.3489 26.3733 31.3489 24.1613C31.3489 21.9834 30.7534 20.2818 29.5623 19.0567C28.3712 17.8316 26.8399 17.2191 24.9682 17.2191C23.0625 17.2191 21.5311 17.8487 20.3741 19.1078C19.217 20.3329 18.6385 22.0174 18.6385 24.1613C18.6385 26.3393 19.217 28.0578 20.3741 29.317C21.5311 30.5761 23.0625 31.2056 24.9682 31.2056Z" fill="#010A39" fill-opacity="0.25"/>
</svg>
