<svg width="44" height="45" viewBox="0 0 44 45" fill="none" xmlns="http://www.w3.org/2000/svg">
<path fill-rule="evenodd" clip-rule="evenodd" d="M10 0.290527C4.47715 0.290527 0 4.76768 0 10.2905V34.2905C0 39.8134 4.47715 44.2905 10 44.2905H34C39.5228 44.2905 44 39.8134 44 34.2905V10.2905C44 4.76768 39.5228 0.290527 34 0.290527H10ZM34.4617 10.3704C33.4347 9.38795 32.1979 8.89674 30.7515 8.89674H13.2486C11.8022 8.89674 10.5655 9.38795 9.53837 10.3704C8.5113 11.3528 7.99776 12.5358 7.99776 13.9193V30.6612C7.99776 32.0447 8.5113 33.2277 9.53837 34.2101C10.5655 35.1925 11.8022 35.6838 13.2486 35.6838H22.9481V25.3073H19.3017V21.2613H22.9481V18.2792C22.9481 16.5817 23.4434 15.268 24.4341 14.3379C25.4247 13.4077 26.7465 12.9427 28.3995 12.9427C29.7973 12.9427 30.8791 12.995 31.6449 13.0996V16.7096L29.4205 16.7271C28.594 16.7271 28.0379 16.8898 27.7523 17.2154C27.4667 17.5409 27.3239 18.0292 27.3239 18.6803V21.2613H31.499L30.9521 25.3073H27.3239V35.6838H30.7515C32.1979 35.6838 33.4347 35.1925 34.4617 34.2101C35.4888 33.2277 36.0024 32.0447 36.0024 30.6612V13.9193C36.0024 12.5358 35.4888 11.3528 34.4617 10.3704Z" fill="#494F70"/>
</svg>
