<svg width="44" height="54" viewBox="0 0 44 54" fill="none" xmlns="http://www.w3.org/2000/svg">
<path fill-rule="evenodd" clip-rule="evenodd" d="M32.4063 21.6052C32.4063 27.396 27.6223 32.1052 21.7397 32.1052C15.857 32.1052 11.073 27.396 11.073 21.6052C11.073 15.8145 15.857 11.1052 21.7397 11.1052C27.6223 11.1052 32.4063 15.8145 32.4063 21.6052ZM27.073 21.6052C27.073 18.7099 24.681 16.3552 21.7397 16.3552C18.7983 16.3552 16.4063 18.7099 16.4063 21.6052C16.4063 24.5006 18.7983 26.8552 21.7397 26.8552C24.681 26.8552 27.073 24.5006 27.073 21.6052Z" fill="#010A39" fill-opacity="0.25"/>
<path fill-rule="evenodd" clip-rule="evenodd" d="M21.7396 53.1048C21.185 53.1048 20.6442 52.9343 20.1929 52.617C19.3822 52.0526 0.328907 38.5102 0.406241 21.5921C0.406241 10.0264 9.97691 0.605225 21.7396 0.605225C33.5022 0.605225 43.0729 10.0264 43.0729 21.6052C43.1502 38.5102 24.0969 52.0526 23.2862 52.617C22.8349 52.9343 22.2942 53.1048 21.7396 53.1048ZM37.7396 21.6184C37.7396 12.9191 30.5636 5.85523 21.7396 5.85523C12.9156 5.85523 5.73957 12.9191 5.73957 21.6052C5.68357 33.2629 17.4436 43.7261 21.7396 47.1596C26.0382 43.7287 37.7956 33.2681 37.7396 21.6184Z" fill="#010A39" fill-opacity="0.25"/>
</svg>
