<svg width="47" height="48" viewBox="0 0 47 48" fill="none" xmlns="http://www.w3.org/2000/svg">
<path fill-rule="evenodd" clip-rule="evenodd" d="M7.44641 5.47607C6.80652 5.47607 6.19283 5.73027 5.74036 6.18274C5.30294 6.62016 5.05082 7.20824 5.03453 7.82502C5.59924 16.7645 9.40511 25.1924 15.7403 31.5276C22.0755 37.8628 30.5034 41.6686 39.4429 42.2333C40.0596 42.217 40.6477 41.9649 41.0851 41.5275C41.5376 41.075 41.7918 40.4613 41.7918 39.8214V31.6886L33.0583 28.1952L30.4692 32.5104C29.7998 33.6261 28.3866 34.0418 27.2197 33.4663C21.3921 30.5923 16.6756 25.8758 13.8015 20.0482C13.226 18.8813 13.6418 17.4681 14.7574 16.7987L19.0726 14.2095L15.5793 5.47607H7.44641ZM2.20483 2.64721C3.59498 1.25705 5.48043 0.476074 7.44641 0.476074H17.2718C18.2941 0.476074 19.2134 1.09845 19.593 2.0476L24.5058 14.3294C24.9615 15.4687 24.523 16.7703 23.4708 17.4016L19.3967 19.8461C21.4071 23.1116 24.1562 25.8608 27.4218 27.8712L29.8663 23.7971C30.4976 22.7449 31.7992 22.3064 32.9385 22.7621L45.2203 27.6748C46.1694 28.0545 46.7918 28.9738 46.7918 29.996V39.8214C46.7918 41.7874 46.0108 43.6729 44.6206 45.063C43.2305 46.4532 41.345 47.2342 39.3791 47.2342C39.3285 47.2342 39.2779 47.2326 39.2274 47.2296C29.0363 46.6102 19.4243 42.2826 12.2048 35.0631C4.98528 27.8436 0.657613 18.2315 0.038295 8.04044C0.0352266 7.98995 0.0336914 7.93937 0.0336914 7.88879C0.0336914 5.92282 0.814671 4.03736 2.20483 2.64721Z" fill="#010A39" fill-opacity="0.25"/>
</svg>
