<svg width="48" height="54" viewBox="0 0 48 54" fill="none" xmlns="http://www.w3.org/2000/svg">
<path d="M23.8352 21.605C28.2976 21.605 31.8676 18.0613 31.8676 13.7301C31.8676 9.39887 28.2976 5.85516 23.8352 5.85516C19.3727 5.85516 15.8028 9.39887 15.8028 13.7301C15.8028 18.0613 19.3727 21.605 23.8352 21.605ZM23.8352 26.8549C16.4853 26.8549 10.5528 20.975 10.5528 13.7301C10.5528 6.48516 16.4853 0.605225 23.8352 0.605225C31.1851 0.605225 37.1175 6.48516 37.1175 13.7301C37.1175 20.975 31.1851 26.8549 23.8352 26.8549ZM5.46039 47.8547H42.21V44.3635C42.21 39.7698 36.1463 35.0186 23.8352 35.0186C11.5241 35.0186 5.46039 39.7698 5.46039 44.3635V47.8547ZM23.8352 29.7686C41.3175 29.7686 47.4599 38.5098 47.4599 44.3635V53.1046H0.210449V44.3635C0.210449 38.5098 6.35288 29.7686 23.8352 29.7686V29.7686Z" fill="#010A39" fill-opacity="0.25"/>
</svg>
