<svg width="44" height="45" viewBox="0 0 44 45" fill="none" xmlns="http://www.w3.org/2000/svg">
<path fill-rule="evenodd" clip-rule="evenodd" d="M15.8387 10.6642C17.843 9.48302 20.1272 8.8604 22.4537 8.86108L22.4515 8.85889C25.9048 8.85947 29.2165 10.2319 31.658 12.6742C34.0994 15.1164 35.4707 18.4286 35.4701 21.8819C35.4695 25.3352 34.0972 28.6469 31.6549 31.0884C29.2126 33.5298 25.9004 34.9011 22.4471 34.9005H22.4405C20.109 34.9007 17.8203 34.2739 15.8142 33.0858L15.3397 32.8045L10.4117 34.0964L11.7277 29.2937L11.4179 28.8015C10.1819 26.8305 9.49641 24.5644 9.43284 22.2388C9.36928 19.9132 9.92992 17.613 11.0565 15.5774C12.183 13.5419 13.8343 11.8453 15.8387 10.6642ZM28.9825 28.6768C29.437 28.3565 29.8202 27.9457 30.1082 27.4701C30.3644 26.8854 30.4439 26.2385 30.3367 25.6092C30.2609 25.4817 30.0837 25.3961 29.8221 25.2697C29.7502 25.2349 29.6719 25.1971 29.5875 25.1544C29.1965 24.9567 27.2696 24.0097 26.9115 23.8801C26.5534 23.7505 26.2941 23.6846 26.0327 24.0757C25.7713 24.4667 25.0221 25.3477 24.7936 25.6092C24.5651 25.8706 24.3366 25.9058 23.9455 25.7081C22.7911 25.2487 21.7257 24.5914 20.7971 23.7659C19.9414 22.9747 19.2076 22.0611 18.6199 21.0547C18.3936 20.6636 18.5957 20.4527 18.7934 20.2572C18.9056 20.145 19.033 19.9899 19.1619 19.8329C19.2349 19.7439 19.3085 19.6544 19.38 19.5717C19.5408 19.374 19.6725 19.1542 19.7711 18.9192C19.823 18.8112 19.8472 18.692 19.8415 18.5723C19.8357 18.4526 19.8002 18.3362 19.7382 18.2337C19.6808 18.1176 19.3817 17.3911 19.0792 16.6563C18.8722 16.1536 18.6637 15.6469 18.5298 15.3292C18.25 14.6531 17.9668 14.6556 17.7379 14.6576C17.7079 14.6579 17.6789 14.6582 17.651 14.6569C17.4225 14.6437 17.161 14.6437 16.9018 14.6437C16.7035 14.649 16.5083 14.6953 16.3288 14.7796C16.1492 14.8639 15.9889 14.9845 15.8582 15.1337C15.4156 15.5525 15.0652 16.0589 14.8291 16.6206C14.5931 17.1823 14.4766 17.7871 14.4872 18.3963C14.615 19.8722 15.1709 21.2787 16.0867 22.4432C17.7654 24.9588 20.0693 26.9946 22.7723 28.3511C23.5006 28.6655 24.245 28.9412 25.0023 29.1772C25.8009 29.4194 26.6449 29.4721 27.4674 29.331C28.0121 29.2198 28.528 28.9971 28.9825 28.6768Z" fill="#494F70"/>
<path fill-rule="evenodd" clip-rule="evenodd" d="M43.7514 7.47353C43.884 8.4082 43.9597 9.35007 43.978 10.2939C43.9934 10.6965 44 11.2179 44 11.4599L43.9978 33.1233C43.9978 33.3653 43.989 33.8867 43.9758 34.2893C43.9565 35.2407 43.8786 36.1899 43.7426 37.1317C43.5842 37.9578 43.3164 38.7591 42.9462 39.5143C42.1302 41.1216 40.8233 42.4271 39.215 43.2411C38.4548 43.613 37.6483 43.8816 36.817 44.0397C35.8823 44.1724 34.9405 44.2481 33.9966 44.2663C33.594 44.2817 33.0726 44.2883 32.8306 44.2883L11.165 44.2839C10.923 44.2839 10.4016 44.2773 9.999 44.2619C9.04769 44.2434 8.09842 44.1663 7.1566 44.0309C6.33056 43.8724 5.52931 43.6046 4.774 43.2345C3.16703 42.4191 1.86164 41.113 1.0472 39.5055C0.675256 38.7454 0.406673 37.9389 0.2486 37.1075C0.11586 36.1729 0.0401865 35.231 0.022 34.2871C0.00659998 33.8845 0 33.3631 0 33.1211L0.00440021 11.4555C0.00440021 11.2135 0.0132002 10.6921 0.0264002 10.2895C0.0457668 9.33817 0.123647 8.38891 0.2596 7.44713C0.41804 6.62107 0.685865 5.81982 1.056 5.06453C1.87139 3.45756 3.17755 2.15217 4.785 1.33773C5.54514 0.965758 6.35162 0.697175 7.183 0.539127C8.11766 0.406387 9.05954 0.330714 10.0034 0.312527C10.406 0.297127 10.9274 0.290527 11.1694 0.290527L32.835 0.297127C33.077 0.297127 33.5984 0.303727 34.001 0.319127C34.9523 0.337643 35.9016 0.414789 36.8434 0.550127C37.6695 0.708466 38.4707 0.976295 39.226 1.34653C40.8331 2.16179 42.1385 3.46799 42.9528 5.07553C43.3248 5.83566 43.5934 6.64215 43.7514 7.47353ZM22.4708 37.5959H22.4774C25.9298 37.5958 29.2858 36.4566 32.0249 34.355C34.7641 32.2535 36.7334 29.3069 37.6275 25.9723C38.5216 22.6376 38.2906 19.1011 36.9702 15.9111C35.6499 12.7211 33.314 10.0558 30.3248 8.32843C27.3355 6.60107 23.8599 5.90816 20.4368 6.35713C17.0136 6.80609 13.8342 8.37186 11.3915 10.8117C8.94884 13.2515 7.3793 16.429 6.92626 19.8516C6.47322 23.2742 7.162 26.7506 8.8858 29.7419L6.6594 37.8665L14.9754 35.6863C17.2752 36.9389 19.8521 37.5954 22.4708 37.5959Z" fill="#494F70"/>
</svg>
