<svg width="26" height="26" viewBox="0 0 26 26" fill="none" xmlns="http://www.w3.org/2000/svg">
<path d="M25.3563 3.75129C26.2145 2.89313 26.2145 1.50178 25.3563 0.643619C24.4981 -0.21454 23.1068 -0.214539 22.2486 0.643619L13 9.89229L3.75136 0.643668C2.8932 -0.21449 1.50186 -0.21449 0.643697 0.643668C-0.21446 1.50183 -0.21446 2.89318 0.643698 3.75134L9.89231 13L0.643618 22.2487C-0.21454 23.1068 -0.214539 24.4982 0.643618 25.3563C1.50178 26.2145 2.89313 26.2145 3.75128 25.3563L13 16.1076L22.2487 25.3564C23.1069 26.2145 24.4982 26.2145 25.3564 25.3564C26.2145 24.4982 26.2145 23.1069 25.3564 22.2487L16.1076 13L25.3563 3.75129Z" fill="#010A39"/>
</svg>
