<svg width="30" height="26" viewBox="0 0 30 26" fill="none" xmlns="http://www.w3.org/2000/svg">
<path fill-rule="evenodd" clip-rule="evenodd" d="M0 2.28571C0 1.71739 0.225765 1.17235 0.627628 0.770482C1.02949 0.368618 1.57454 0.142853 2.14286 0.142853H27.8571C28.4255 0.142853 28.9705 0.368618 29.3724 0.770482C29.7742 1.17235 30 1.71739 30 2.28571C30 2.85403 29.7742 3.39907 29.3724 3.80094C28.9705 4.2028 28.4255 4.42857 27.8571 4.42857H2.14286C1.57454 4.42857 1.02949 4.2028 0.627628 3.80094C0.225765 3.39907 0 2.85403 0 2.28571ZM0 13C0 12.4317 0.225765 11.8866 0.627628 11.4848C1.02949 11.0829 1.57454 10.8571 2.14286 10.8571H27.8571C28.4255 10.8571 28.9705 11.0829 29.3724 11.4848C29.7742 11.8866 30 12.4317 30 13C30 13.5683 29.7742 14.1134 29.3724 14.5152C28.9705 14.9171 28.4255 15.1429 27.8571 15.1429H2.14286C1.57454 15.1429 1.02949 14.9171 0.627628 14.5152C0.225765 14.1134 0 13.5683 0 13ZM12.8571 23.7143C12.8571 23.146 13.0829 22.6009 13.4848 22.1991C13.8866 21.7972 14.4317 21.5714 15 21.5714H27.8571C28.4255 21.5714 28.9705 21.7972 29.3724 22.1991C29.7742 22.6009 30 23.146 30 23.7143C30 24.2826 29.7742 24.8276 29.3724 25.2295C28.9705 25.6314 28.4255 25.8571 27.8571 25.8571H15C14.4317 25.8571 13.8866 25.6314 13.4848 25.2295C13.0829 24.8276 12.8571 24.2826 12.8571 23.7143Z" fill="#010A39"/>
</svg>
