<svg width="26" height="25" viewBox="0 0 26 25" fill="none" xmlns="http://www.w3.org/2000/svg">
<path d="M25.0028 2.89773C25.6656 2.23484 25.6656 1.16007 25.0028 0.497172C24.3399 -0.165724 23.2651 -0.165724 22.6022 0.497172L13 10.0994L3.39781 0.497222C2.73491 -0.165675 1.66015 -0.165675 0.997251 0.497222C0.334355 1.16012 0.334355 2.23489 0.997251 2.89778L10.5994 12.5L0.997172 22.1022C0.334276 22.7651 0.334276 23.8399 0.997172 24.5028C1.66007 25.1657 2.73483 25.1657 3.39773 24.5028L13 14.9005L22.6023 24.5028C23.2652 25.1657 24.3399 25.1657 25.0028 24.5028C25.6657 23.8399 25.6657 22.7652 25.0028 22.1023L15.4005 12.5L25.0028 2.89773Z" fill="#010A39"/>
</svg>
