<svg width="77" height="90" viewBox="0 0 77 90" fill="none" xmlns="http://www.w3.org/2000/svg">
<path d="M22.8181 48.1952H53.9241V40.1952H22.8181V48.1952Z" fill="#010A39"/>
<path fill-rule="evenodd" clip-rule="evenodd" d="M20.9559 18.1841C20.9559 8.56604 28.7529 0.769043 38.371 0.769043C47.9891 0.769043 55.7861 8.56604 55.7861 18.1841V22.9833H57.4328C65.1391 22.9833 71.5916 28.8227 72.3584 36.4907L75.9617 72.5241C76.8448 81.3544 69.9105 89.0167 61.0362 89.0167H15.7058C6.83147 89.0167 -0.102779 81.3544 0.780249 72.5241L4.38359 36.4907C5.15039 28.8227 11.6029 22.9833 19.3091 22.9833H20.9559V18.1841ZM47.7861 18.1841V22.9833H28.9559V18.1841C28.9559 12.9843 33.1712 8.76904 38.371 8.76904C43.5708 8.76904 47.7861 12.9843 47.7861 18.1841ZM19.3091 30.9833H57.4328C61.0291 30.9833 64.0403 33.7083 64.3981 37.2868L68.0014 73.3202C68.4135 77.441 65.1775 81.0167 61.0362 81.0167H15.7058C11.5644 81.0167 8.32847 77.441 8.74055 73.3202L12.3439 37.2868C12.7017 33.7083 15.7129 30.9833 19.3091 30.9833Z" fill="#010A39"/>
</svg>
