<svg width="30" height="34" viewBox="0 0 30 34" fill="none" xmlns="http://www.w3.org/2000/svg">
<path fill-rule="evenodd" clip-rule="evenodd" d="M26.3294 9.6259L15.4147 3.32428C15.1053 3.14565 14.7241 3.14565 14.4147 3.32428L3.5 9.6259C3.1906 9.80453 3 10.1347 3 10.4919V23.0951C3 23.4524 3.1906 23.7825 3.5 23.9612L14.4147 30.2628C14.7241 30.4414 15.1053 30.4414 15.4147 30.2628L26.3294 23.9612C26.6388 23.7825 26.8294 23.4524 26.8294 23.0951V10.4919C26.8294 10.1347 26.6388 9.80453 26.3294 9.6259ZM16.9147 0.726206C15.6771 0.0116751 14.1523 0.0116746 12.9147 0.726206L2 7.02782C0.762396 7.74235 0 9.06286 0 10.4919V23.0951C0 24.5242 0.762394 25.8447 2 26.5592L12.9147 32.8609C14.1523 33.5754 15.6771 33.5754 16.9147 32.8609L27.8294 26.5592C29.067 25.8447 29.8294 24.5242 29.8294 23.0951V10.4919C29.8294 9.06286 29.067 7.74235 27.8294 7.02782L16.9147 0.726206Z" fill="#F88F01"/>
<path fill-rule="evenodd" clip-rule="evenodd" d="M22.5712 13.6402L13.0825 23.1289L7.25821 17.3045L9.37953 15.1832L13.0825 18.8862L20.4499 11.5189L22.5712 13.6402Z" fill="#F88F01"/>
</svg>
