<svg id="Layer_1" data-name="Layer 1" xmlns="http://www.w3.org/2000/svg" viewBox="0 0 449.79 189.51"><defs><style>.cls-1{fill:#171638;}.cls-2{fill:#f88f01;}</style></defs><path class="cls-1" d="M238.83,554.63a42.54,42.54,0,0,1-21.28-5.69l-45.22-26.1A42.69,42.69,0,0,1,151.05,486V433.77a42.69,42.69,0,0,1,21.28-36.86l45.22-26.11a42.67,42.67,0,0,1,42.56,0l45.22,26.11a42.69,42.69,0,0,1,21.28,36.86V486a42.69,42.69,0,0,1-21.28,36.86l-45.22,26.1A42.54,42.54,0,0,1,238.83,554.63Zm0-179.93a33,33,0,0,0-16.49,4.41l-45.22,26.1a33.07,33.07,0,0,0-16.48,28.56V486a33.07,33.07,0,0,0,16.48,28.55l45.22,26.11a33.06,33.06,0,0,0,33,0l45.22-26.11A33.06,33.06,0,0,0,317,486V433.77a33.06,33.06,0,0,0-16.49-28.56l-45.22-26.1A32.89,32.89,0,0,0,238.83,374.7Z" transform="translate(-151.05 -365.12)"/><path class="cls-2" d="M304.19,436.41c-4.14-4.82-10-7.49-16.94-7.73-.64,0-1.3,0-2,0a52.73,52.73,0,0,0-23.7,5.42,23.51,23.51,0,0,0-7.8-24.26,4,4,0,0,1,3.73-2.64,3.84,3.84,0,1,0,0-7.67,11.67,11.67,0,0,0-10.41,6.44,23.63,23.63,0,0,0-16.57,0,11.66,11.66,0,0,0-10.41-6.44,3.84,3.84,0,0,0,0,7.67,4,4,0,0,1,3.74,2.64,23.51,23.51,0,0,0-7.8,24.26,52.76,52.76,0,0,0-23.7-5.42c-.66,0-1.32,0-2,0-6.94.24-12.79,2.91-16.93,7.73a24.94,24.94,0,0,0,0,31.59c4.14,4.82,10,7.49,16.93,7.73.65,0,1.31,0,2,0a52.44,52.44,0,0,0,24.83-6l.05,0c-.08.31-.16.61-.25.92v0a55.33,55.33,0,0,0-1.73,13.8,56.44,56.44,0,0,0,.34,6.11c0,.13,0,.25,0,.37a52.6,52.6,0,0,0,3.94,14.87,40.35,40.35,0,0,0,11.66,15.61,12.17,12.17,0,0,0,15.16,0,40.35,40.35,0,0,0,11.66-15.61A52.62,52.62,0,0,0,262,491c0-.13,0-.25,0-.38a56.44,56.44,0,0,0,.34-6.11,55.07,55.07,0,0,0-2-14.76l.06,0a52.44,52.44,0,0,0,24.83,6c.66,0,1.32,0,2,0,6.94-.24,12.8-2.91,16.94-7.73a24.94,24.94,0,0,0,0-31.59Zm-65.36,17.37a7.93,7.93,0,0,1,5.85,2.55,35.93,35.93,0,0,1,7.56,12.92,52.25,52.25,0,0,1-26.82,0A36.05,36.05,0,0,1,233,456.33,7.94,7.94,0,0,1,238.83,453.78Zm-15.89,30.7a48.53,48.53,0,0,1,.62-7.78,60.17,60.17,0,0,0,30.54,0,49.71,49.71,0,0,1,.62,7.78c0,1.29-.06,2.57-.16,3.84a27.84,27.84,0,0,1-31.46,0C223,487.05,222.94,485.77,222.94,484.48Zm15.89-72.37A15.89,15.89,0,1,1,222.94,428,15.9,15.9,0,0,1,238.83,412.11Zm-46.46,56c-.57,0-1.14,0-1.7,0-10.48-.36-15.17-8.22-15.17-15.86s4.69-15.5,15.17-15.86l1.7,0c14.43,0,27.35,6.31,32.87,15.88C219.72,461.78,206.8,468.09,192.37,468.09Zm49.28,47.33a4.58,4.58,0,0,1-5.65,0c-5.06-4-8.91-10.16-11.08-17.35a36.07,36.07,0,0,0,27.82,0C250.57,505.26,246.71,511.42,241.65,515.42ZM287,468.06c-.56,0-1.13,0-1.7,0-14.43,0-27.35-6.31-32.88-15.89,5.53-9.57,18.45-15.88,32.88-15.88l1.7,0c10.48.36,15.17,8.23,15.17,15.86S297.47,467.7,287,468.06Z" transform="translate(-151.05 -365.12)"/><path class="cls-1" d="M359,455.78a22.87,22.87,0,0,1-5.36-2.24,1.78,1.78,0,0,1-.66-2.24l1.47-3.26a1.8,1.8,0,0,1,2.54-.79,21.93,21.93,0,0,0,4,1.74,21.48,21.48,0,0,0,6.61,1.06,10.53,10.53,0,0,0,5.44-1.09,3.3,3.3,0,0,0,1.76-2.91,2.77,2.77,0,0,0-1-2.21,7.88,7.88,0,0,0-2.66-1.41c-1.09-.36-2.55-.75-4.4-1.17a60.9,60.9,0,0,1-7-2,11.37,11.37,0,0,1-4.66-3.25,8.79,8.79,0,0,1-1.95-6,10.44,10.44,0,0,1,1.76-5.9,11.78,11.78,0,0,1,5.31-4.18,21.63,21.63,0,0,1,8.66-1.55,28.71,28.71,0,0,1,7,.86,21.32,21.32,0,0,1,4.54,1.65,1.78,1.78,0,0,1,.83,2.26l-1.34,3.29a1.77,1.77,0,0,1-2.41.93,20.09,20.09,0,0,0-8.66-2.06,9.7,9.7,0,0,0-5.36,1.18,3.56,3.56,0,0,0-1.73,3.09,3,3,0,0,0,2,2.85,31,31,0,0,0,6.1,1.84,60.65,60.65,0,0,1,7,2,11.47,11.47,0,0,1,4.67,3.2,8.55,8.55,0,0,1,1.95,5.91,10.19,10.19,0,0,1-1.79,5.84,12,12,0,0,1-5.36,4.19,21.86,21.86,0,0,1-8.69,1.54A30.57,30.57,0,0,1,359,455.78Z" transform="translate(-151.05 -365.12)"/><path class="cls-1" d="M450,430.43q3.28,3.21,3.28,9.49v14.65a1.77,1.77,0,0,1-1.78,1.77h-4.76a1.78,1.78,0,0,1-1.78-1.77V441.2a7.46,7.46,0,0,0-1.49-5.09,5.46,5.46,0,0,0-4.32-1.68,6.6,6.6,0,0,0-5,1.95,8.07,8.07,0,0,0-1.87,5.78v12.41a1.77,1.77,0,0,1-1.77,1.77h-4.77a1.77,1.77,0,0,1-1.77-1.77V429.44a1.78,1.78,0,0,1,1.77-1.78h4.39a1.78,1.78,0,0,1,1.78,1.78V431a11,11,0,0,1,4.11-2.8,14.23,14.23,0,0,1,5.38-1A11.8,11.8,0,0,1,450,430.43Z" transform="translate(-151.05 -365.12)"/><path class="cls-1" d="M513,453.55a1.78,1.78,0,0,1-.93,2.24,9.85,9.85,0,0,1-1.56.53,15.12,15.12,0,0,1-3.7.45q-5.18,0-8-2.61t-2.77-7.68V423.09a1.78,1.78,0,0,1,1.77-1.78h4.77a1.78,1.78,0,0,1,1.78,1.78v5.21h5.31a1.78,1.78,0,0,1,1.78,1.78v2.84a1.78,1.78,0,0,1-1.78,1.78h-5.31v11.67a4,4,0,0,0,.9,2.8,3.38,3.38,0,0,0,2.61,1,6,6,0,0,0,1.82-.27,1.81,1.81,0,0,1,2.28,1.05Z" transform="translate(-151.05 -365.12)"/><path class="cls-1" d="M545.66,429.44v25.13a1.78,1.78,0,0,1-1.78,1.77h-4.39a1.77,1.77,0,0,1-1.77-1.77V453q-3.11,3.73-9,3.73a14.86,14.86,0,0,1-7.33-1.81,13,13,0,0,1-5.15-5.17,17.22,17.22,0,0,1,0-15.57,12.94,12.94,0,0,1,5.15-5.17,14.87,14.87,0,0,1,7.33-1.82,10.91,10.91,0,0,1,8.58,3.47v-1.26a1.78,1.78,0,0,1,1.78-1.78h4.76A1.78,1.78,0,0,1,545.66,429.44Zm-10.24,18.35a9.08,9.08,0,0,0,0-11.57,6.92,6.92,0,0,0-5.22-2.16,7,7,0,0,0-5.28,2.16,9.08,9.08,0,0,0,0,11.57A7,7,0,0,0,530.2,450,6.92,6.92,0,0,0,535.42,447.79Z" transform="translate(-151.05 -365.12)"/><path class="cls-1" d="M569.29,453.55a1.78,1.78,0,0,1-.93,2.24,9.85,9.85,0,0,1-1.56.53,15.14,15.14,0,0,1-3.71.45q-5.16,0-7.94-2.61t-2.77-7.68V423.09a1.78,1.78,0,0,1,1.77-1.78h4.77a1.78,1.78,0,0,1,1.78,1.78v5.21H566a1.78,1.78,0,0,1,1.78,1.78v2.84A1.78,1.78,0,0,1,566,434.7H560.7v11.67a4,4,0,0,0,.9,2.8,3.38,3.38,0,0,0,2.61,1,6,6,0,0,0,1.82-.27,1.81,1.81,0,0,1,2.28,1.05Z" transform="translate(-151.05 -365.12)"/><path class="cls-1" d="M591.22,449.44a9.18,9.18,0,0,0,2-1.08,1.79,1.79,0,0,1,2.37.2l2.13,2.31a1.8,1.8,0,0,1-.19,2.59q-3.91,3.32-10.49,3.31a18.75,18.75,0,0,1-8.58-1.89,13.84,13.84,0,0,1-5.76-5.25,14.48,14.48,0,0,1-2-7.63,14.7,14.7,0,0,1,2-7.6,14.08,14.08,0,0,1,5.5-5.27,16.12,16.12,0,0,1,7.86-1.9,15.93,15.93,0,0,1,7.46,1.74,13.25,13.25,0,0,1,5.36,5,14.53,14.53,0,0,1,2,7.76l-21.22,4.1a6.43,6.43,0,0,0,2.85,3.2,9.85,9.85,0,0,0,4.78,1.07A11.12,11.12,0,0,0,591.22,449.44ZM580.9,435.55a8.07,8.07,0,0,0-2.08,5.6l14-2.72a6.27,6.27,0,0,0-2.4-3.57,7.16,7.16,0,0,0-4.37-1.34A6.84,6.84,0,0,0,580.9,435.55Z" transform="translate(-151.05 -365.12)"/><path class="cls-1" d="M355.32,465.23a1.78,1.78,0,0,1,1.77-1.78h15.18A23.92,23.92,0,0,1,383,465.77a17.48,17.48,0,0,1,7.25,6.53,20,20,0,0,1,0,19.63,17.48,17.48,0,0,1-7.25,6.53,23.92,23.92,0,0,1-10.75,2.32H357.09a1.78,1.78,0,0,1-1.77-1.78Zm16.53,28.46a12.54,12.54,0,0,0,8.93-3.12,12.4,12.4,0,0,0,0-16.91,12.53,12.53,0,0,0-8.93-3.11h-6.12a1.77,1.77,0,0,0-1.77,1.77v19.59a1.78,1.78,0,0,0,1.77,1.78Z" transform="translate(-151.05 -365.12)"/><path class="cls-1" d="M401.76,497.68q-3.84-3.68-3.84-10.13V471.9a1.77,1.77,0,0,1,1.78-1.78h4.87a1.77,1.77,0,0,1,1.77,1.78v15.39a8.05,8.05,0,0,0,1.57,5.38,5.78,5.78,0,0,0,4.62,1.81,5.62,5.62,0,0,0,4.53-1.81,8.11,8.11,0,0,0,1.55-5.38V471.9a1.77,1.77,0,0,1,1.77-1.78h4.77a1.77,1.77,0,0,1,1.77,1.78v15.65q0,6.45-3.84,10.13t-10.66,3.68Q405.6,501.36,401.76,497.68Z" transform="translate(-151.05 -365.12)"/><path class="cls-1" d="M435.52,461.21h4.77a1.78,1.78,0,0,1,1.77,1.78v36a1.78,1.78,0,0,1-1.77,1.78h-4.77a1.78,1.78,0,0,1-1.77-1.78V463A1.78,1.78,0,0,1,435.52,461.21Z" transform="translate(-151.05 -365.12)"/><path class="cls-1" d="M454.62,499.31a14.12,14.12,0,0,1-5.7-5.25,15.14,15.14,0,0,1,0-15.25,14.12,14.12,0,0,1,5.7-5.25,17.68,17.68,0,0,1,8.24-1.9,16,16,0,0,1,7.92,1.9,11.19,11.19,0,0,1,4,3.69,1.78,1.78,0,0,1-.64,2.56l-3.43,1.85a1.79,1.79,0,0,1-2.25-.43,6.81,6.81,0,0,0-5.65-2.74,7.31,7.31,0,0,0-5.39,2.13,9,9,0,0,0,0,11.63,7.31,7.31,0,0,0,5.39,2.13,6.78,6.78,0,0,0,5.66-2.74,1.75,1.75,0,0,1,2.23-.42l3.43,1.87a1.78,1.78,0,0,1,.62,2.57,11.56,11.56,0,0,1-4,3.62,15.8,15.8,0,0,1-7.92,1.92A17.67,17.67,0,0,1,454.62,499.31Z" transform="translate(-151.05 -365.12)"/><path class="cls-1" d="M497.75,493.87a8.46,8.46,0,0,0,2-1.08,1.79,1.79,0,0,1,2.36.2l2.13,2.31a1.79,1.79,0,0,1-.18,2.59q-3.92,3.32-10.49,3.31a18.69,18.69,0,0,1-8.58-1.89,13.84,13.84,0,0,1-5.76-5.25,14.48,14.48,0,0,1-2-7.63,14.66,14.66,0,0,1,2-7.59,13.94,13.94,0,0,1,5.49-5.28,16.27,16.27,0,0,1,7.87-1.9A16,16,0,0,1,500,473.4a13.25,13.25,0,0,1,5.36,5,14.64,14.64,0,0,1,2,7.76l-21.22,4.1a6.34,6.34,0,0,0,2.85,3.2,9.83,9.83,0,0,0,4.77,1.07A10.83,10.83,0,0,0,497.75,493.87ZM487.44,480a8,8,0,0,0-2.08,5.6l14-2.72a6.27,6.27,0,0,0-2.4-3.57,7.18,7.18,0,0,0-4.37-1.33A6.82,6.82,0,0,0,487.44,480Z" transform="translate(-151.05 -365.12)"/><path class="cls-1" d="M418.2,429.62v24.93a2,2,0,0,1-2,2h-4a2,2,0,0,1-2-2v-1.33q-3.12,3.76-9,3.76a15,15,0,0,1-7.4-1.82,13.16,13.16,0,0,1-5.19-5.22,17.35,17.35,0,0,1,0-15.71,13.14,13.14,0,0,1,5.19-5.21,15,15,0,0,1,7.4-1.83q5.53,0,8.66,3.49v-1.06a2,2,0,0,1,2-2h4.39A2,2,0,0,1,418.2,429.62Zm-21.46-7.49a7.52,7.52,0,0,1-2.39-3.27,2,2,0,0,1,1.89-2.7h1.26a2,2,0,0,1,1.85,1.26,3.51,3.51,0,0,0,1.13,1.51,5.57,5.57,0,0,0,6.51,0,3.59,3.59,0,0,0,1.13-1.51,2,2,0,0,1,1.84-1.26h1.27a2,2,0,0,1,1.88,2.7,7.44,7.44,0,0,1-2.39,3.27,12.16,12.16,0,0,1-14,0Zm11.13,25.79a9.16,9.16,0,0,0,0-11.67,7.52,7.52,0,0,0-10.59,0,9.16,9.16,0,0,0,0,11.67,7.52,7.52,0,0,0,10.59,0Z" transform="translate(-151.05 -365.12)"/><path class="cls-1" d="M490.07,429.62v24.93a2,2,0,0,1-2,2h-4a2,2,0,0,1-2-2v-1.33q-3.12,3.76-9,3.76a15,15,0,0,1-7.39-1.82,13,13,0,0,1-5.19-5.22,17.27,17.27,0,0,1,0-15.71,13,13,0,0,1,5.19-5.21,15,15,0,0,1,7.39-1.83q5.53,0,8.66,3.49v-1.06a2,2,0,0,1,2-2h4.39A2,2,0,0,1,490.07,429.62Zm-21.46-7.49a7.52,7.52,0,0,1-2.39-3.27,2,2,0,0,1,1.89-2.7h1.26a2,2,0,0,1,1.85,1.26,3.51,3.51,0,0,0,1.13,1.51,5.57,5.57,0,0,0,6.51,0,3.51,3.51,0,0,0,1.13-1.51,2,2,0,0,1,1.85-1.26h1.26a2,2,0,0,1,1.88,2.7,7.5,7.5,0,0,1-2.38,3.27,12.18,12.18,0,0,1-14,0Zm11.13,25.79a9.16,9.16,0,0,0,0-11.67,7,7,0,0,0-5.27-2.18,7.08,7.08,0,0,0-5.32,2.18,9.16,9.16,0,0,0,0,11.67,7.08,7.08,0,0,0,5.32,2.18A7,7,0,0,0,479.74,447.92Z" transform="translate(-151.05 -365.12)"/></svg>