<svg width="913" height="296" viewBox="0 0 913 296" fill="none" xmlns="http://www.w3.org/2000/svg">
<path d="M346.33 33.6154C307.83 23.1154 255.83 57.4154 221.23 85.7154C221.03 77.1154 217.73 69.3154 212.43 63.3154C215.83 58.7154 221.73 55.5154 225.23 53.8154C226.73 53.1154 227.53 51.3154 226.93 49.7154L226.83 49.3154C226.13 47.5154 224.13 46.6154 222.33 47.4154C218.33 49.3154 211.63 53.0154 207.33 58.5154C201.53 54.2154 194.33 51.6154 186.63 51.6154C178.93 51.6154 171.83 54.2154 166.03 58.5154C161.73 53.0154 155.03 49.3154 151.03 47.4154C149.23 46.6154 147.23 47.5154 146.53 49.3154L146.43 49.6154C145.83 51.2154 146.63 53.0154 148.13 53.7154C152.03 55.5154 157.63 58.8154 160.93 63.2154C155.63 69.2154 152.33 77.0154 152.13 85.6154C117.53 57.2154 65.5304 22.9154 27.0304 33.5154C15.9304 36.5154 7.43044 43.7154 3.23044 53.8154C-1.66956 65.5154 -0.56956 79.9154 6.33044 92.3154C16.6304 111.015 41.7304 125.215 78.8304 133.315C79.4304 133.515 80.6304 133.815 82.2304 134.115C76.3304 139.015 71.6304 144.615 68.8304 150.815C64.3304 160.915 65.3304 171.615 71.8304 182.015C72.0304 182.315 77.5304 190.415 89.7304 192.215C91.3304 192.415 93.0304 192.615 94.7304 192.615C108.03 192.615 123.53 185.315 140.73 170.915C144.93 167.415 148.73 164.215 152.23 161.115C146.03 175.215 142.73 191.115 142.73 207.615C142.73 243.915 158.63 276.515 184.23 292.915C184.93 293.615 185.83 294.015 186.73 294.015C186.73 294.015 186.73 294.015 186.83 294.015C186.83 294.015 186.83 294.015 186.93 294.015C187.83 294.015 188.73 293.615 189.43 292.915C215.03 276.515 230.93 244.015 230.93 207.615C230.93 191.115 227.63 175.215 221.43 161.115C224.93 164.115 228.73 167.415 232.93 170.915C250.23 185.315 265.63 192.615 278.93 192.615C280.63 192.615 282.33 192.515 283.93 192.215C296.13 190.415 301.53 182.415 301.83 182.015C308.23 171.715 309.23 161.015 304.73 150.915C301.93 144.715 297.23 139.015 291.33 134.215C292.83 133.815 294.03 133.615 294.63 133.415C331.83 125.315 356.93 111.115 367.23 92.4154C374.13 79.9154 375.23 65.5154 370.33 53.9154C365.93 43.8154 357.43 36.6154 346.33 33.6154ZM208.83 70.0154C212.23 74.6154 214.23 80.2154 214.23 86.3154C214.23 88.2154 214.03 90.1154 213.63 92.0154C213.43 92.1154 213.33 92.3154 213.13 92.4154C206.63 82.6154 207.43 74.6154 208.83 70.0154ZM169.63 64.5154C174.33 60.9154 180.13 58.7154 186.53 58.7154C192.93 58.7154 198.83 60.9154 203.53 64.6154C200.93 69.9154 197.43 82.0154 207.83 97.1154C197.73 105.915 190.23 113.315 186.53 116.915C182.83 113.215 175.33 105.915 165.23 97.1154C175.63 82.0154 172.13 69.8154 169.63 64.5154ZM186.53 162.315C173.43 162.315 163.73 164.215 157.63 165.815C160.53 158.915 164.13 152.415 168.53 146.515C176.43 139.215 181.43 134.015 184.53 130.415C185.33 129.815 186.23 129.215 187.13 128.615C190.13 132.315 195.43 137.915 204.63 146.515C208.93 152.315 212.63 158.815 215.53 165.815C209.43 164.115 199.63 162.315 186.53 162.315C186.63 162.315 186.63 162.315 186.53 162.315ZM164.23 70.0154C165.73 74.6154 166.43 82.5154 159.93 92.5154C159.73 92.4154 159.63 92.2154 159.43 92.1154C159.03 90.2154 158.83 88.3154 158.83 86.4154C158.93 80.2154 160.93 74.6154 164.23 70.0154ZM136.03 165.515C113.83 184.015 99.1304 186.515 90.6304 185.315C81.4304 184.015 77.5304 178.415 77.4304 178.215C72.2304 169.915 71.4304 161.615 74.9304 153.615C77.9304 147.015 83.8304 140.915 91.0304 135.915C108.53 139.115 138.23 142.115 145.03 127.215C145.83 125.515 146.63 122.115 144.53 119.215C141.43 114.915 133.83 113.915 120.83 116.115C110.83 117.815 99.4304 122.215 89.6304 128.515C86.3304 127.815 83.1304 127.115 80.2304 126.415C45.0304 118.715 21.5304 105.715 12.2304 88.9154C6.43044 78.3154 5.33044 66.2154 9.43044 56.5154C12.8304 48.4154 19.5304 42.7154 28.6304 40.2154C82.0304 25.6154 168.43 108.715 182.13 122.315C180.43 124.615 175.83 130.115 164.13 140.915C163.83 141.115 163.53 141.415 163.23 141.715C156.63 148.015 147.73 155.715 136.03 165.515ZM100.53 130.515C107.63 126.915 115.13 124.415 122.03 123.215C136.63 120.715 138.83 123.415 138.93 123.515C139.03 123.715 138.93 124.115 138.83 124.215L138.73 124.415C135.13 132.415 117.53 132.815 100.53 130.515ZM186.53 286.215C176.33 279.315 167.73 269.315 161.43 257.315C166.03 255.815 174.83 253.415 186.53 253.415C198.13 253.415 207.03 255.815 211.63 257.315C205.33 269.315 196.83 279.315 186.53 286.215ZM214.73 250.915C209.83 249.215 199.93 246.415 186.63 246.315C186.63 246.315 186.63 246.315 186.53 246.315C186.43 246.315 186.53 246.315 186.43 246.315C173.13 246.315 163.23 249.115 158.33 250.915C155.73 244.915 153.53 238.415 152.03 231.715C157.53 230.315 169.93 227.815 186.43 227.815C202.93 227.815 215.33 230.415 220.83 231.715C219.53 238.515 217.33 244.915 214.73 250.915ZM223.63 207.615C223.63 213.515 223.13 219.215 222.23 224.815C216.13 223.315 203.53 220.815 186.63 220.815C186.63 220.815 186.63 220.815 186.53 220.815C186.43 220.815 186.53 220.815 186.43 220.815C169.53 220.815 156.83 223.315 150.83 224.815C149.93 219.215 149.43 213.415 149.43 207.615C149.43 205.715 149.53 203.815 149.63 201.915C154.83 200.915 167.83 199.015 186.53 199.015C205.23 199.015 218.23 201.015 223.43 201.915C223.53 203.815 223.63 205.715 223.63 207.615ZM222.93 194.715C216.53 193.615 204.03 192.015 186.63 192.015C186.63 192.015 186.63 192.015 186.53 192.015C186.43 192.015 186.53 192.015 186.43 192.015C169.03 192.015 156.53 193.615 150.13 194.715C150.93 187.615 152.43 180.615 154.53 174.015C158.23 172.715 169.43 169.315 186.43 169.315C203.53 169.315 214.63 172.715 218.33 174.015C220.63 180.615 222.13 187.515 222.93 194.715ZM360.93 89.0154C351.63 105.915 328.13 118.915 292.83 126.615C290.03 127.315 286.83 128.115 283.63 128.715C273.83 122.415 262.33 118.115 252.43 116.315C239.33 114.115 231.83 115.015 228.73 119.415C226.63 122.315 227.43 125.715 228.23 127.415C234.93 142.315 264.73 139.315 282.23 136.115C289.43 141.115 295.33 147.215 298.33 153.815C301.93 161.815 301.03 170.015 295.93 178.315C295.93 178.415 291.93 184.115 282.83 185.415C274.33 186.615 259.53 184.215 237.23 165.615C225.43 155.815 216.63 148.015 209.93 141.915C209.73 141.615 209.43 141.415 209.13 141.215C197.63 130.515 192.93 125.015 191.13 122.515C204.93 108.815 291.23 25.9154 344.53 40.5154C353.63 43.0154 360.33 48.6154 363.73 56.8154C367.83 66.3154 366.73 78.4154 360.93 89.0154ZM272.63 130.515C255.53 132.815 237.93 132.415 234.33 124.315C234.23 124.115 234.13 123.715 234.23 123.515C234.33 123.415 235.33 122.215 240.63 122.215C243.13 122.215 246.53 122.515 251.13 123.315C258.03 124.415 265.53 126.915 272.63 130.515Z" fill="#FF980C"/>
<path d="M462.63 170.615H447.83H434.13V181.415V282.115V292.915H447.83H462.63C474.63 292.915 484.33 283.215 484.33 271.215V192.215C484.33 180.315 474.63 170.615 462.63 170.615ZM470.63 269.815C470.63 276.615 465.13 282.115 458.33 282.115H447.83V181.415H458.33C465.13 181.415 470.63 186.915 470.63 193.715V269.815Z" fill="#FF980C"/>
<path d="M540.43 281.915H517.73V170.315H503.93V292.715H508.03H517.73H540.43H554.23V281.915V170.315H540.43V281.915Z" fill="#FF980C"/>
<path d="M694.13 170.315V181.215V224.015V234.815V281.915V292.715H707.93H734.73V281.915H707.93V234.815H732.73V224.015H707.93V181.215H734.73V170.315H707.93H694.13Z" fill="#FF980C"/>
<path d="M912.331 25.5154V14.7154H885.43H871.73V25.5154V68.3154V79.2154V126.315V137.115H885.43H912.331V126.315H885.43V79.2154H910.23V68.3154H885.43V25.5154H912.331Z" fill="#FF980C"/>
<path d="M670.63 170.315H669.13H663.73H640.93H637.13C631.63 170.315 627.23 174.715 627.23 180.215V282.715C627.23 288.215 631.63 292.615 637.13 292.615H640.93H663.73H670.63C674.43 292.615 677.531 289.515 677.531 285.715V252.215H663.831V281.715H641.031V181.215H663.831V207.815H677.531V177.315C677.431 173.415 674.43 170.315 670.63 170.315Z" fill="#FF980C"/>
<path d="M585.93 170.315H572.23V281.915V292.715H585.93H612.83V281.915H585.93V170.315Z" fill="#FF980C"/>
<path d="M478.43 14.5154H470.53H464.63H452.23H447.73H443.13H439.83C436.53 14.5154 433.93 17.1154 433.93 20.4154V49.9154C433.93 51.3154 434.43 52.6154 435.23 53.6154L468.23 93.8154C469.63 95.5154 470.43 97.7154 470.43 99.9154V126.515H447.63V96.5154H434.13V131.315C434.13 134.615 436.73 137.215 440.03 137.215H443.33V137.315H478.53V137.215C481.83 137.215 484.43 134.615 484.43 131.315V98.6154C484.43 97.2154 483.93 95.9154 483.13 94.9154L450.13 54.7154C448.73 53.0154 447.93 50.8154 447.93 48.6154V25.3154H452.43H464.83H470.73V52.0154H484.43V20.4154C484.33 17.1154 481.73 14.5154 478.43 14.5154Z" fill="#FF980C"/>
<path d="M531.63 0.415405H514.03V8.11542H531.63V0.415405Z" fill="#FF980C"/>
<path d="M511.43 110.515H534.23L539.33 137.315H553.33L530.03 14.5154H529.83H515.63L492.33 137.315H506.33L511.43 110.515ZM522.93 50.4154L532.33 99.7154H513.63L522.93 50.4154Z" fill="#FF980C"/>
<path d="M666.43 0.415405H648.83V8.11542H666.43V0.415405Z" fill="#FF980C"/>
<path d="M664.73 14.5154H650.531L627.23 137.315H641.23L646.331 110.515H669.13L674.23 137.315H688.23L664.93 14.5154H664.73ZM648.331 99.7154L657.73 50.4154L667.13 99.7154H648.331Z" fill="#FF980C"/>
<path d="M784.23 14.5154H770.031L746.73 137.315H760.73L765.831 110.515H788.63L793.73 137.315H807.73L784.331 14.5154H784.23ZM767.831 99.7154L777.23 50.4154L786.63 99.7154H767.831Z" fill="#FF980C"/>
<path d="M810.33 25.3154H828.83V137.115H842.53V25.3154H861.03V14.5154H810.33V25.3154Z" fill="#FF980C"/>
<path d="M692.13 25.3154H710.531V137.115H724.331V25.3154H742.831V14.5154H692.13V25.3154Z" fill="#FF980C"/>
<path d="M602.33 91.2154L578.23 14.5154H564.43V137.115H578.23V60.3154L602.33 137.115H616.03V14.5154H602.33V91.2154Z" fill="#FF980C"/>
<path d="M409.13 3.41541H402.33V295.715H409.13V3.41541Z" fill="#FF980C"/>
</svg>
