<svg width="138" height="52" viewBox="0 0 138 52" fill="none" xmlns="http://www.w3.org/2000/svg">
<path d="M63.9968 27.3573C63.1953 27.3577 62.3961 27.2731 61.6128 27.1049C60.8862 26.9582 60.1862 26.7038 59.5364 26.3502C59.3804 26.2779 59.2414 26.174 59.1285 26.0452C59.0156 25.9164 58.9312 25.7657 58.8808 25.6026C58.7922 25.2996 58.8116 24.9757 58.9357 24.6852C59.0448 24.4064 59.2595 24.1805 59.534 24.0555C59.6954 23.9966 59.868 23.9743 60.0393 23.9902C60.2105 24.0062 60.3759 24.0599 60.5234 24.1475C61.0442 24.4386 61.607 24.6494 62.1921 24.7725C62.7868 24.9048 63.3944 24.972 64.0039 24.9729C64.9026 24.9729 65.5463 24.8314 65.9397 24.5531C66.1143 24.4405 66.258 24.2867 66.3578 24.1056C66.4577 23.9245 66.5106 23.7217 66.5118 23.5155C66.517 23.3512 66.4822 23.1882 66.4105 23.04C66.3387 22.8919 66.232 22.7629 66.0994 22.6641C65.6635 22.3933 65.1771 22.2121 64.669 22.1311L62.5473 21.6971C60.192 21.2097 59.0119 20.0038 59.0072 18.0794C58.9914 17.3026 59.226 16.541 59.6771 15.9049C60.155 15.2582 60.8043 14.7546 61.5532 14.4498C62.4378 14.0843 63.3887 13.9021 64.3472 13.9145C65.0394 13.9089 65.7296 13.9881 66.4021 14.1503C67.0313 14.3021 67.6318 14.553 68.1806 14.8932C68.3216 14.9686 68.4458 15.0714 68.5457 15.1954C68.6457 15.3194 68.7193 15.4621 68.7622 15.6149C68.837 15.8978 68.8144 16.1974 68.6979 16.4662C68.6429 16.597 68.5614 16.7154 68.4585 16.8139C68.3556 16.9125 68.2334 16.9892 68.0995 17.0393C67.9273 17.091 67.746 17.1064 67.5673 17.0844C67.3887 17.0625 67.2167 17.0037 67.0625 16.912C66.6489 16.7017 66.2087 16.547 65.7537 16.4521C65.2836 16.3525 64.8041 16.3035 64.3234 16.3059C63.5367 16.3059 62.9311 16.4592 62.502 16.7634C62.3018 16.8891 62.1375 17.0636 62.0248 17.27C61.9121 17.4764 61.8548 17.708 61.8584 17.9426C61.8528 18.1073 61.8854 18.2712 61.9535 18.4216C62.0217 18.572 62.1237 18.705 62.2517 18.8105C62.6617 19.0914 63.133 19.2724 63.6272 19.3388L65.7394 19.7774C68.1615 20.2931 69.3725 21.4629 69.3725 23.2867C69.3903 24.0514 69.1588 24.8014 68.7122 25.4257C68.2346 26.0595 67.5883 26.5494 66.8456 26.8408C65.9411 27.202 64.9719 27.3777 63.9968 27.3573Z" fill="#010A39"/>
<path d="M74.1404 27.3573C73.5134 27.3708 72.8919 27.2383 72.3262 26.9705C71.8257 26.7334 71.3967 26.3707 71.0818 25.9186C70.7754 25.4795 70.6146 24.957 70.6217 24.4234C70.5916 23.8534 70.7768 23.2927 71.1414 22.8504C71.4895 22.4542 72.056 22.1727 72.8411 22.0061C73.8698 21.816 74.9155 21.7306 75.9617 21.7514H76.634V21.4259C76.634 20.8835 76.5084 20.4983 76.2573 20.2703C76.0062 20.0423 75.5827 19.9291 74.9867 19.9307C74.6155 19.9342 74.2456 19.9752 73.8829 20.0533C73.4422 20.1462 73.0112 20.2796 72.5956 20.4519C72.4615 20.5244 72.3121 20.5649 72.1594 20.5702C72.0067 20.5755 71.8549 20.5455 71.7159 20.4826C71.5994 20.4218 71.497 20.3378 71.4149 20.236C71.3328 20.1341 71.273 20.0165 71.2391 19.8906C71.1631 19.6235 71.1859 19.3383 71.3035 19.0864C71.3697 18.9449 71.4656 18.8189 71.5848 18.7168C71.704 18.6147 71.8438 18.5389 71.9948 18.4944C72.5304 18.2869 73.0843 18.129 73.6493 18.0228C74.1211 17.935 74.5996 17.8876 75.0797 17.8813C76.5005 17.8813 77.5605 18.1957 78.2598 18.8246C78.9591 19.4535 79.3096 20.4362 79.3111 21.7726V25.8762C79.3111 26.8195 78.8773 27.2912 78.0047 27.2912C77.1322 27.2912 76.6769 26.8195 76.6745 25.8762V25.7653C76.4949 26.2391 76.1644 26.6422 75.7329 26.9139C75.2564 27.2107 74.7034 27.3647 74.1404 27.3573ZM75.2132 16.9332C74.6586 16.9524 74.1092 16.8228 73.6231 16.5582C73.1923 16.3124 72.8315 15.9627 72.5741 15.5418C72.3108 15.1153 72.132 14.643 72.0473 14.1503C72.018 14.0299 72.0145 13.9047 72.0371 13.7828C72.0597 13.6609 72.1078 13.5451 72.1784 13.4428C72.2433 13.3556 72.3276 13.2844 72.4247 13.2345C72.5218 13.1846 72.6292 13.1574 72.7386 13.1551C72.8444 13.1427 72.9515 13.1527 73.053 13.1844C73.1546 13.2161 73.2481 13.2688 73.3275 13.339C73.4834 13.5023 73.5985 13.6993 73.6636 13.9145C73.7306 14.3115 73.9284 14.6755 74.2262 14.9498C74.4988 15.1759 74.8431 15.2998 75.1989 15.2998C75.5546 15.2998 75.8989 15.1759 76.1715 14.9498C76.4712 14.6763 76.6707 14.3122 76.7389 13.9145C76.8047 13.6927 76.9232 13.4897 77.0845 13.3225C77.1639 13.2521 77.2573 13.1992 77.3588 13.1671C77.4603 13.135 77.5675 13.1244 77.6734 13.1362C77.7826 13.1383 77.8899 13.1651 77.987 13.2146C78.0841 13.264 78.1685 13.3348 78.2336 13.4216C78.3039 13.524 78.3521 13.6398 78.3751 13.7615C78.3981 13.8833 78.3953 14.0084 78.3671 14.1291C78.2965 14.6247 78.1219 15.1003 77.8546 15.5252C77.5929 15.9457 77.2312 16.2963 76.8009 16.5464C76.3162 16.8136 75.7678 16.9472 75.2132 16.9332ZM74.7602 25.4705C75.0066 25.4757 75.2515 25.4307 75.4795 25.3382C75.7076 25.2457 75.9139 25.1077 76.0857 24.9328C76.2664 24.7497 76.4076 24.5321 76.5006 24.2933C76.5936 24.0545 76.6366 23.7995 76.6268 23.5437V23.1829H75.9712C75.0177 23.1829 74.3335 23.2702 73.9354 23.4376C73.7549 23.4977 73.599 23.6141 73.4911 23.7693C73.3832 23.9245 73.3291 24.1102 73.337 24.2984C73.3332 24.4577 73.364 24.6159 73.4274 24.7624C73.4907 24.9088 73.5851 25.0402 73.7041 25.1474C74.0015 25.3847 74.3794 25.5003 74.7602 25.4705Z" fill="#010A39"/>
<path d="M82.8585 27.2936C81.9049 27.2936 81.4281 26.8219 81.4281 25.8785L81.4162 19.3128C81.4162 18.3694 81.8763 17.8978 82.7965 17.8978C83.7191 17.8978 84.1792 18.3694 84.1815 19.301V19.3741C84.4829 18.8885 84.9167 18.4969 85.4331 18.2445C85.979 17.9802 86.5799 17.8461 87.1877 17.853C88.2732 17.853 89.0837 18.1627 89.6193 18.7822C90.1549 19.4016 90.425 20.3599 90.4298 21.657V25.855C90.4298 26.7983 89.957 27.27 89.0114 27.27C88.8223 27.282 88.6327 27.2555 88.4544 27.1922C88.276 27.1289 88.1127 27.0302 87.9744 26.9021C87.8458 26.7591 87.7471 26.5923 87.6841 26.4113C87.6211 26.2304 87.595 26.0389 87.6072 25.8479V21.7797C87.6072 21.1508 87.4881 20.698 87.2497 20.4212C87.1179 20.2787 86.9555 20.1674 86.7743 20.0955C86.5931 20.0237 86.3979 19.9931 86.2031 20.0062C85.9384 19.995 85.6743 20.0389 85.4279 20.1352C85.1815 20.2315 84.9583 20.378 84.7728 20.5651C84.5906 20.7651 84.4501 20.9986 84.3593 21.2523C84.2685 21.5061 84.2291 21.775 84.2435 22.0438V25.855C84.2578 26.8172 83.793 27.2936 82.8585 27.2936Z" fill="#010A39"/>
<path d="M95.6626 27.3077C95.0357 27.322 94.4143 27.1903 93.8484 26.9233C93.3479 26.6862 92.9188 26.3236 92.604 25.8715C92.2976 25.4313 92.136 24.9083 92.1415 24.3739C92.1132 23.8038 92.2992 23.2434 92.6636 22.8008C93.0116 22.407 93.5766 22.1263 94.3633 21.9565C95.392 21.766 96.4375 21.6791 97.4839 21.6971H98.1562V21.3858C98.1562 20.8434 98.0298 20.459 97.7795 20.2302C97.5292 20.0014 97.1072 19.8906 96.5089 19.8906C96.1378 19.8963 95.7682 19.9374 95.4051 20.0132C94.9646 20.1081 94.5337 20.2423 94.1178 20.4142C93.9837 20.487 93.8342 20.5275 93.6814 20.5324C93.5285 20.5373 93.3766 20.5065 93.2381 20.4425C93.1219 20.382 93.0195 20.2984 92.9375 20.1969C92.8554 20.0955 92.7954 19.9783 92.7613 19.8529C92.6865 19.5856 92.7093 19.3009 92.8257 19.0487C92.8934 18.9062 92.9909 18.7796 93.1117 18.6771C93.2325 18.5747 93.3739 18.4988 93.5266 18.4543C94.0616 18.2478 94.6146 18.0899 95.1786 17.9827C95.6501 17.8928 96.1288 17.8454 96.609 17.8412C98.0298 17.8412 99.0899 18.1556 99.7892 18.7845C100.488 19.4134 100.839 20.3961 100.84 21.7325V25.8384C100.84 26.7818 100.407 27.2535 99.5365 27.2535C98.6663 27.2535 98.2062 26.7818 98.2062 25.8384V25.7276C98.026 26.201 97.6956 26.604 97.2646 26.8761C96.784 27.1703 96.2275 27.3202 95.6626 27.3077ZM96.7449 16.8955C96.1909 16.9137 95.6423 16.7834 95.1572 16.5181C94.726 16.2739 94.365 15.9248 94.1082 15.504C93.8442 15.0761 93.6654 14.6022 93.5814 14.1078C93.5525 13.9875 93.549 13.8625 93.5711 13.7408C93.5933 13.6191 93.6406 13.5031 93.7101 13.4003C93.7759 13.3141 93.8603 13.2434 93.9573 13.1937C94.0542 13.1439 94.1612 13.1162 94.2703 13.1126C94.3764 13.1012 94.4837 13.1117 94.5854 13.1434C94.6872 13.175 94.7812 13.2272 94.8616 13.2966C95.0229 13.4638 95.1414 13.6667 95.2072 13.8885C95.2749 14.2853 95.4726 14.6491 95.7698 14.9238C96.0387 15.1562 96.3856 15.2807 96.7425 15.2729C97.0992 15.2788 97.4452 15.1526 97.7127 14.9191C98.0092 14.6442 98.2061 14.2804 98.273 13.8838C98.3369 13.6617 98.4547 13.4585 98.6163 13.2918C98.6957 13.2216 98.7891 13.1687 98.8906 13.1366C98.9921 13.1045 99.0992 13.0939 99.2051 13.1055C99.3147 13.1073 99.4224 13.1339 99.52 13.1834C99.6176 13.2329 99.7023 13.3039 99.7677 13.3909C99.8378 13.4935 99.8856 13.6093 99.9082 13.7311C99.9307 13.8528 99.9275 13.9779 99.8988 14.0984C99.8286 14.5938 99.6548 15.0693 99.3887 15.4946C99.1268 15.9138 98.7639 16.2622 98.3326 16.5087C97.8486 16.7776 97.2998 16.9113 96.7449 16.8955ZM96.2943 25.4399C96.5407 25.4449 96.7855 25.3998 97.0135 25.3073C97.2415 25.2148 97.4479 25.0769 97.6198 24.9022C97.8001 24.7188 97.9408 24.5012 98.0334 24.2624C98.126 24.0236 98.1686 23.7687 98.1585 23.5131V23.1428H97.503C96.5494 23.1428 95.8628 23.2277 95.4647 23.3952C95.2851 23.4563 95.1302 23.573 95.0228 23.7281C94.9155 23.8831 94.8614 24.0682 94.8687 24.256C94.8636 24.4158 94.8938 24.5747 94.9572 24.7218C95.0207 24.8688 95.1157 25.0004 95.2358 25.1073C95.5333 25.3468 95.9116 25.4657 96.2943 25.4399Z" fill="#010A39"/>
<path d="M107.475 27.2865C104.896 27.2865 103.603 26.0499 103.599 23.5768V20.1005H102.812C102.078 20.1005 101.708 19.7562 101.708 19.0675C101.708 18.3789 102.073 18.011 102.81 18.011H103.594V16.5959C103.594 15.6526 104.071 15.1809 105.024 15.1809C105.978 15.1809 106.446 15.6526 106.428 16.5959V18.011H108.204C108.928 18.011 109.289 18.3616 109.289 19.0628C109.289 19.7538 108.932 20.0981 108.209 20.1005H106.433V23.4659C106.403 23.8862 106.534 24.3023 106.8 24.631C107.043 24.8888 107.433 25.0177 107.968 25.0177C108.145 25.0166 108.321 24.9977 108.493 24.9611C108.64 24.9253 108.79 24.9001 108.941 24.8857C109.021 24.8772 109.101 24.8878 109.176 24.9165C109.251 24.9452 109.317 24.9913 109.37 25.0507C109.485 25.1734 109.539 25.4281 109.542 25.8101C109.549 26.0795 109.498 26.3473 109.392 26.5955C109.341 26.7044 109.268 26.8022 109.179 26.8832C109.089 26.9642 108.984 27.0267 108.87 27.0672C108.655 27.1424 108.433 27.1953 108.207 27.2252C107.965 27.2649 107.72 27.2854 107.475 27.2865Z" fill="#010A39"/>
<path d="M113.626 27.2771C112.997 27.2899 112.373 27.1557 111.807 26.8856C111.306 26.6485 110.877 26.2858 110.562 25.8337C110.256 25.3942 110.095 24.8721 110.1 24.3385C110.071 23.7683 110.257 23.2078 110.622 22.7655C110.97 22.3693 111.535 22.0886 112.322 21.9212C113.35 21.7313 114.396 21.6452 115.442 21.6641H116.114V21.3552C116.114 20.8127 115.988 20.426 115.738 20.1996C115.487 19.9731 115.065 19.8576 114.467 19.8599C114.096 19.8633 113.726 19.9044 113.363 19.9826C112.923 20.0754 112.492 20.2089 112.076 20.3811C111.942 20.4536 111.793 20.4941 111.64 20.4994C111.487 20.5047 111.335 20.4747 111.196 20.4118C111.08 20.3511 110.977 20.2671 110.895 20.1652C110.813 20.0633 110.753 19.9457 110.72 19.8199C110.644 19.5529 110.666 19.2682 110.781 19.0156C110.85 18.8734 110.947 18.747 111.068 18.6446C111.189 18.5422 111.33 18.4661 111.482 18.4213C112.017 18.2148 112.57 18.0569 113.134 17.9497C113.606 17.8621 114.085 17.8147 114.565 17.8082C115.986 17.8082 117.046 18.1226 117.745 18.7515C118.444 19.3804 118.799 20.3623 118.811 21.6971V25.8007C118.811 26.7441 118.377 27.2157 117.504 27.2157C116.632 27.2157 116.176 26.7441 116.174 25.8007V25.7064C115.994 26.1801 115.664 26.5832 115.232 26.8549C114.749 27.1467 114.191 27.2933 113.626 27.2771ZM114.257 25.4069C114.504 25.4121 114.749 25.367 114.977 25.2745C115.205 25.182 115.411 25.044 115.583 24.8691C115.763 24.686 115.905 24.4684 115.998 24.2296C116.091 23.9908 116.134 23.7358 116.124 23.4801V23.1122H115.471C114.517 23.1122 113.838 23.1963 113.432 23.3645C113.253 23.4261 113.098 23.5433 112.99 23.6987C112.883 23.8541 112.829 24.0396 112.836 24.2277C112.832 24.387 112.863 24.5454 112.926 24.6919C112.99 24.8384 113.084 24.9697 113.204 25.0767C113.499 25.3159 113.876 25.434 114.257 25.4069Z" fill="#010A39"/>
<path d="M125.438 27.2558C122.859 27.2558 121.566 26.0193 121.562 23.5461V20.0675H120.775C120.041 20.0675 119.671 19.7255 119.671 19.0345C119.671 18.3435 120.036 17.9803 120.773 17.978H121.557V16.5629C121.557 15.6196 122.034 15.1479 122.987 15.1479C123.941 15.1479 124.409 15.6196 124.391 16.5629V17.978H126.167C126.891 17.978 127.253 18.3286 127.254 19.0298C127.254 19.7208 126.895 20.0651 126.172 20.0675H124.396V23.4329C124.365 23.8532 124.496 24.2696 124.763 24.5979C125.002 24.8574 125.397 24.9847 125.931 24.9847C126.108 24.986 126.284 24.967 126.456 24.9281C126.604 24.8937 126.753 24.8684 126.904 24.8526C126.984 24.8443 127.065 24.8551 127.14 24.8843C127.216 24.9134 127.282 24.96 127.336 25.0201C127.476 25.2468 127.535 25.5132 127.505 25.7771C127.512 26.0463 127.462 26.314 127.357 26.5625C127.306 26.6718 127.233 26.7699 127.143 26.8509C127.053 26.9319 126.947 26.9942 126.833 27.0342C126.618 27.1103 126.396 27.1641 126.17 27.1945C125.928 27.2331 125.683 27.2536 125.438 27.2558Z" fill="#010A39"/>
<path d="M133.159 27.2417C132.194 27.2691 131.236 27.0712 130.363 26.6639C129.612 26.302 128.986 25.7274 128.566 25.013C128.132 24.25 127.914 23.3858 127.934 22.5108C127.915 21.6514 128.123 20.8021 128.537 20.0463C128.93 19.3506 129.507 18.7741 130.206 18.3789C130.95 17.9668 131.792 17.7584 132.645 17.7751C133.978 17.7751 135.038 18.1886 135.825 19.0156C136.611 19.8426 137.009 20.9676 137.017 22.3905C137.017 22.8622 136.726 23.098 136.139 23.098H130.656C130.756 23.8134 131.023 24.3338 131.455 24.6593C131.884 24.9871 132.48 25.1474 133.241 25.1474C133.582 25.1427 133.923 25.108 134.258 25.0437C134.638 24.9755 135.006 24.8532 135.35 24.6805C135.486 24.5993 135.639 24.548 135.797 24.53C135.955 24.5121 136.115 24.5281 136.266 24.5767C136.384 24.6238 136.492 24.6949 136.581 24.7855C136.67 24.8761 136.739 24.9841 136.783 25.1026C136.876 25.3507 136.876 25.6234 136.783 25.8715C136.667 26.1614 136.444 26.3967 136.158 26.5295C135.703 26.7705 135.216 26.9483 134.711 27.0577C134.203 27.1755 133.682 27.2372 133.159 27.2417ZM132.752 19.6241C132.486 19.6125 132.221 19.6542 131.973 19.7466C131.724 19.839 131.497 19.9803 131.305 20.1618C130.914 20.5715 130.674 21.1002 130.625 21.6617H134.664C134.586 20.3017 133.949 19.6225 132.752 19.6241Z" fill="#010A39"/>
<path d="M60.8333 44.4272C59.8225 44.4272 59.3163 43.9288 59.3147 42.932L59.2956 32.89C59.2956 31.8916 59.7994 31.3917 60.807 31.3901H64.4521C66.6946 31.3901 68.434 31.9514 69.6705 33.074C70.907 34.1966 71.5268 35.8011 71.53 37.8874C71.53 39.9691 70.9165 41.5791 69.6896 42.7174C68.4627 43.8557 66.7256 44.4257 64.4783 44.4272H60.8333ZM62.2112 42.0689H64.3043C67.1078 42.0689 68.5072 40.6727 68.5024 37.8804C68.4976 35.088 67.0935 33.7029 64.29 33.7249H62.1969L62.2112 42.0689Z" fill="#010A39"/>
<path d="M76.9272 44.6018C75.7543 44.6018 74.8905 44.2826 74.3359 43.6443C73.7812 43.0059 73.5023 42.0453 73.4991 40.7623V36.5833C73.4991 35.6399 73.9655 35.1682 74.8985 35.1682C75.8314 35.1682 76.3082 35.6352 76.3288 36.5691V40.8142C76.3288 41.888 76.7969 42.4234 77.733 42.4203C77.9812 42.4274 78.228 42.3804 78.4559 42.2825C78.6837 42.1847 78.887 42.0385 79.0513 41.8542C79.4066 41.4396 79.589 40.9067 79.5615 40.3637V36.555C79.5615 35.6116 80.0279 35.1399 80.9608 35.1399C81.9144 35.1399 82.3912 35.6116 82.3912 36.555L82.4031 43.1183C82.4031 44.0617 81.9502 44.5334 81.0419 44.5452C80.8538 44.5581 80.665 44.5321 80.4877 44.4688C80.3103 44.4054 80.1483 44.3061 80.012 44.1773C79.7612 43.8914 79.6337 43.5197 79.6568 43.1419C79.3798 43.6085 78.979 43.9912 78.4979 44.2486C78.0167 44.5059 77.4735 44.628 76.9272 44.6018Z" fill="#010A39"/>
<path d="M87.8814 44.5734C85.6739 44.5734 84.5685 43.3605 84.5654 40.9345L84.5511 32.5952C84.5511 31.6519 85.0231 31.1763 85.9671 31.1684C86.9016 31.1684 87.3712 31.6401 87.3736 32.5834L87.3879 40.8118C87.354 41.2119 87.4712 41.6102 87.7169 41.9297C87.8264 42.0492 87.9611 42.1435 88.1114 42.2058C88.2618 42.2682 88.4242 42.2971 88.5871 42.2905C88.6835 42.2904 88.7799 42.2841 88.8755 42.2717C88.9655 42.2586 89.0563 42.2523 89.1473 42.2528C89.2281 42.2381 89.3116 42.2477 89.3869 42.2805C89.4621 42.3133 89.5257 42.3678 89.5692 42.4368C89.6729 42.7008 89.7144 42.9846 89.6908 43.2669C89.6908 43.9744 89.3881 44.3895 88.7778 44.4909L88.3487 44.5381C88.1866 44.5734 88.0292 44.5734 87.8814 44.5734Z" fill="#010A39"/>
<path d="M95.1715 44.5734C94.2625 44.5984 93.3615 44.3998 92.5492 43.9956C91.8249 43.6266 91.2288 43.0516 90.8375 42.3448C90.4214 41.5652 90.2138 40.6932 90.2344 39.8119C90.208 38.9363 90.4126 38.0691 90.828 37.2955C91.2189 36.5976 91.8139 36.0329 92.5349 35.6753C93.3449 35.2819 94.2383 35.0862 95.1405 35.1045C95.5589 35.1076 95.976 35.1535 96.3849 35.2413C96.8324 35.3367 97.2636 35.4956 97.6651 35.713C97.8022 35.7676 97.9255 35.8515 98.026 35.9588C98.1266 36.066 98.202 36.1939 98.2468 36.3333C98.3212 36.5926 98.3053 36.8693 98.2015 37.1186C98.1105 37.3618 97.9312 37.5628 97.6985 37.6823C97.5679 37.7396 97.425 37.7638 97.2826 37.7527C97.1403 37.7415 97.003 37.6955 96.8831 37.6186C96.4364 37.3753 95.9364 37.2434 95.4266 37.2342C95.1089 37.2162 94.7912 37.2676 94.4958 37.3845C94.2005 37.5015 93.9347 37.6812 93.7173 37.911C93.312 38.3638 93.1118 39.0006 93.1118 39.8284C93.1118 40.6562 93.3168 41.2788 93.7244 41.741C93.9399 41.9747 94.2053 42.1578 94.5015 42.277C94.7976 42.3961 95.117 42.4483 95.4361 42.4297C95.6768 42.4282 95.9167 42.4005 96.1513 42.3471C96.4134 42.2858 96.6654 42.1881 96.8998 42.0571C97.0192 41.9799 97.1566 41.9341 97.2989 41.9242C97.4411 41.9143 97.5836 41.9406 97.7128 42.0004C97.94 42.1195 98.1111 42.3218 98.1895 42.5641C98.2778 42.8175 98.2853 43.0917 98.211 43.3494C98.1697 43.4885 98.0982 43.6169 98.0014 43.7257C97.9046 43.8345 97.7849 43.921 97.6508 43.9791C97.2484 44.1834 96.8214 44.3364 96.3801 44.4343C95.9837 44.5246 95.5783 44.5712 95.1715 44.5734Z" fill="#010A39"/>
<path d="M104.219 44.5522C103.253 44.5797 102.295 44.3817 101.422 43.9744C100.671 43.6121 100.046 43.0376 99.6247 42.3236C99.1908 41.5598 98.9726 40.6948 98.9929 39.8189C98.9735 38.958 99.1814 38.1069 99.5961 37.3497C99.9872 36.653 100.564 36.0762 101.265 35.6823C102.009 35.2732 102.85 35.0672 103.701 35.0857C105.033 35.0857 106.093 35.5 106.881 36.3285C107.67 37.1571 108.067 38.2813 108.073 39.701C108.073 40.1727 107.781 40.4085 107.196 40.4085L101.701 40.4203C101.801 41.1279 102.068 41.6561 102.497 41.9816C103.022 42.3354 103.651 42.5063 104.285 42.4674C104.627 42.4626 104.968 42.4279 105.303 42.3636C105.683 42.2955 106.051 42.1732 106.395 42.0005C106.531 41.9189 106.683 41.8676 106.841 41.85C107 41.8325 107.16 41.8493 107.31 41.899C107.429 41.9451 107.537 42.0159 107.626 42.1066C107.715 42.1974 107.783 42.3059 107.825 42.425C107.92 42.6719 107.92 42.9445 107.825 43.1914C107.711 43.4821 107.487 43.7178 107.201 43.8494C106.746 44.0923 106.259 44.2709 105.754 44.3801C105.25 44.4936 104.735 44.5513 104.219 44.5522ZM103.811 36.9346C103.546 36.9236 103.281 36.9655 103.032 37.0579C102.783 37.1503 102.556 37.2912 102.364 37.4724C101.973 37.8821 101.733 38.4107 101.684 38.9723H105.72C105.646 37.6123 105.009 36.9331 103.811 36.9346Z" fill="#010A39"/>
<path d="M44.8537 8.40292C44.0778 7.68222 43.193 7.08547 42.2314 6.63413C41.4218 6.25634 40.5647 5.98746 39.683 5.83464C39.8606 4.66808 39.6612 3.47583 39.1132 2.42805C38.5652 1.38026 37.6967 0.530487 36.6316 0L35.4539 2.31829C36.0682 2.62415 36.5589 3.1278 36.8454 3.74635C37.1318 4.36489 37.1968 5.06147 37.0297 5.72144C36.2464 5.79153 35.4738 5.94977 34.7268 6.19312C33.014 6.7517 31.4835 7.75343 30.294 9.09443C29.1045 10.4354 28.2993 12.0668 27.962 13.8194C27.6246 15.5721 27.7674 17.382 28.3755 19.0617C28.9836 20.7413 30.0349 22.2294 31.4203 23.3716C32.9971 24.6356 34.1724 26.3223 34.8055 28.2299C35.2845 29.742 35.539 31.3149 35.5612 32.8995L27.7562 29.0576L27.4415 29.2557C26.7482 29.7122 26.0958 30.2266 25.4914 30.7934L35.3585 35.6588C35.125 37.1018 34.6968 38.5074 34.0855 39.8378L22.7618 34.2532C22.6522 34.4466 22.5473 34.6399 22.4471 34.8357C22.1581 35.4031 21.9065 35.9884 21.6938 36.588L32.8196 42.0806C31.9921 43.3221 30.9976 44.4463 29.8636 45.4225L20.8976 41.0005C20.8732 41.9988 20.9531 42.997 21.136 43.9791L27.5154 47.1158C25.4751 48.3296 23.1928 49.0908 20.8261 49.3468C19.6601 47.3928 18.9191 45.2195 18.6505 42.966C18.3818 40.7125 18.5914 38.4284 19.2659 36.2596C19.9403 34.0908 21.0648 32.0851 22.5674 30.3707C24.0699 28.6563 25.9176 27.2709 27.9922 26.3031L26.8908 23.9989C24.4265 25.1505 22.2402 26.8112 20.4794 28.8691C18.7186 30.9271 17.4241 33.3345 16.6832 35.9291C15.9422 38.5238 15.772 41.2454 16.1839 43.9106C16.5959 46.5758 17.5806 49.1227 19.0715 51.3797L19.4815 52L20.2277 51.9528C23.1154 51.7728 25.9241 50.9459 28.4414 49.5346C30.9588 48.1233 33.119 46.1645 34.7589 43.8061C36.3988 41.4478 37.4756 38.7516 37.9078 35.9213C38.34 33.0909 38.1163 30.2004 37.2538 27.4681C36.4753 25.0948 35.0229 22.9932 33.07 21.4141C31.9838 20.5171 31.1745 19.3359 30.7345 18.0056C30.2944 16.6753 30.2414 15.2493 30.5814 13.8906C30.9214 12.5319 31.6407 11.2951 32.6572 10.3215C33.6738 9.34783 34.9466 8.67659 36.3303 8.38438C37.7141 8.09216 39.153 8.19075 40.4828 8.66889C41.8126 9.14702 42.9797 9.98543 43.8509 11.0884C44.722 12.1914 45.2621 13.5144 45.4095 14.9066C45.557 16.2987 45.3057 17.7038 44.6845 18.9614C43.9263 20.5138 42.6426 21.7546 41.0561 22.4683L42.1289 24.7843C44.217 23.8338 45.9166 22.2098 46.9492 20.1783C47.5595 18.9872 47.9205 17.6865 48.0107 16.354C48.1008 15.0216 47.9181 13.6849 47.4737 12.424C47.229 11.7308 46.9093 11.0658 46.5201 10.4406C46.9549 9.91337 47.5583 9.54836 48.2308 9.40562C48.9032 9.26287 49.6048 9.35091 50.22 9.65522L51.3976 7.33693C50.3323 6.81065 49.1262 6.63037 47.9512 6.82177C46.7763 7.01317 45.6923 7.56649 44.8537 8.40292Z" fill="#F88F01"/>
<path d="M24.2947 21.6971C23.837 21.841 23.3697 21.9731 22.8977 22.0768C22.0218 22.2749 21.1314 22.4034 20.2348 22.4612C19.0682 23.5666 17.6905 24.4309 16.1824 25.0036C14.6743 25.5763 13.0659 25.8459 11.4512 25.7967C9.83659 25.7476 8.24803 25.3805 6.77838 24.7171C5.30872 24.0537 3.98743 23.1072 2.89171 21.933C3.77761 20.1002 5.12165 18.5213 6.7966 17.3459C6.2499 16.7874 5.74253 16.1925 5.27803 15.5653L5.17791 15.4215C2.98677 17.022 1.29022 19.1952 0.278921 21.6971L0 22.3811L0.476787 22.9612C1.94343 24.7473 3.81644 26.1648 5.94276 27.0979C8.06908 28.031 10.3884 28.4531 12.7112 28.3298C15.0339 28.2065 17.2943 27.5414 19.3075 26.3886C21.3207 25.2358 23.0296 23.6282 24.2947 21.6971Z" fill="#F88F01"/>
<path d="M8.94214 16.1313C9.46368 16.6258 10.0215 17.0814 10.6109 17.4945C12.2998 18.6658 14.2177 19.4744 16.2414 19.8684C18.2651 20.2624 20.3498 20.233 22.3613 19.7821C23.3309 19.5646 24.2752 19.2485 25.1791 18.8388L25.8633 18.5275L25.9253 17.7869C26.1303 15.2579 25.6646 12.7196 24.5744 10.4231C23.4842 8.12652 21.8072 6.15111 19.709 4.69205C17.6108 3.23299 15.1641 2.34078 12.6107 2.10356C10.0572 1.86635 7.48538 2.29235 5.1493 3.33948L4.46511 3.65078L4.40074 4.39132C4.11395 7.87941 5.10851 11.3528 7.20187 14.1739C7.7223 14.876 8.30468 15.5311 8.94214 16.1313ZM18.2395 6.77092C19.7388 7.81563 20.9804 9.18176 21.8716 10.7674C22.7628 12.353 23.2806 14.1173 23.3864 15.9285C23.4055 16.2233 23.4126 16.5205 23.4079 16.8176C22.6538 17.1009 21.8726 17.3079 21.0764 17.4355C17.9319 17.9446 14.7109 17.2176 12.1009 15.4097L11.8982 15.2587C11.0762 14.66 10.333 13.962 9.68593 13.181C7.86015 10.9801 6.88278 8.2098 6.92772 5.36297C8.78562 4.66792 10.7871 4.43286 12.7579 4.67826C14.7287 4.92366 16.6089 5.64208 18.2347 6.77092H18.2395Z" fill="#F88F01"/>
</svg>
