<svg width="138" height="52" viewBox="0 0 138 52" fill="none" xmlns="http://www.w3.org/2000/svg">
<path d="M24.0802 52C22.0506 52 20.0485 51.4789 18.2384 50.4367L5.84177 43.2785C2.24895 41.1941 0 37.327 0 33.1582V18.8418C0 14.673 2.24895 10.8059 5.84177 8.72151L18.2384 1.56329C21.8312 -0.521097 26.3017 -0.521097 29.9219 1.56329L42.3186 8.72151C45.9114 10.8059 48.1603 14.673 48.1603 18.8418V33.1857C48.1603 37.3544 45.9114 41.2215 42.3186 43.3059L29.9219 50.4641C28.1118 51.4789 26.1097 52 24.0802 52ZM24.0802 2.66034C22.5169 2.66034 20.9536 3.07173 19.5549 3.86709L7.15823 11.0253C4.36076 12.6435 2.63291 15.6329 2.63291 18.8692V33.1857C2.63291 36.3945 4.36076 39.4114 7.15823 41.0295L19.5549 48.1878C22.3523 49.8059 25.808 49.8059 28.6055 48.1878L41.0021 41.0295C43.7996 39.4114 45.5274 36.4219 45.5274 33.1857V18.8692C45.5274 15.6603 43.7996 12.6435 41.0021 11.0253L28.6055 3.86709C27.2068 3.07173 25.6435 2.66034 24.0802 2.66034Z" fill="#171638"/>
<path d="M42.0169 19.5823C40.8924 18.2658 39.2743 17.5253 37.3819 17.4705C37.2173 17.4705 37.0253 17.4705 36.8333 17.4705C34.5021 17.4705 32.2532 17.9916 30.3333 18.9515C30.4705 18.4304 30.5528 17.8544 30.5528 17.2785C30.5528 15.2764 29.6203 13.4662 28.1941 12.2869C28.3587 11.8755 28.7426 11.5738 29.2089 11.5738C29.7848 11.5738 30.2511 11.1076 30.2511 10.5316C30.2511 9.95568 29.7848 9.48944 29.2089 9.48944C27.9747 9.48944 26.8777 10.2025 26.3566 11.2447C25.6435 10.9705 24.8755 10.8333 24.0802 10.8333C23.2848 10.8333 22.5169 10.9705 21.8038 11.2447C21.2827 10.2025 20.1857 9.48944 18.9515 9.48944C18.3755 9.48944 17.9093 9.95568 17.9093 10.5316C17.9093 11.1076 18.3755 11.5738 18.9515 11.5738C19.4177 11.5738 19.8291 11.8755 19.9663 12.2869C18.5401 13.4662 17.6076 15.2764 17.6076 17.2785C17.6076 17.8544 17.6899 18.4029 17.827 18.9515C15.9072 17.9641 13.6582 17.4705 11.327 17.4705C11.135 17.4705 10.9705 17.4705 10.7785 17.4705C8.88609 17.5253 7.26794 18.2658 6.14347 19.5823C5.15613 20.7342 4.6076 22.27 4.6076 23.9156C4.6076 25.5337 5.15613 27.097 6.14347 28.2489C7.26794 29.5654 8.88609 30.3059 10.7785 30.3608C10.943 30.3608 11.135 30.3608 11.327 30.3608C13.7954 30.3608 16.1266 29.7848 18.1287 28.7152C18.1287 28.7152 18.1287 28.7152 18.1561 28.7152C18.1287 28.7975 18.1013 28.8797 18.1013 28.962C17.7996 30.1688 17.635 31.4304 17.635 32.7468C17.635 33.3228 17.6625 33.8713 17.7173 34.4198C17.7173 34.4472 17.7173 34.4747 17.7173 34.5295C17.8819 35.9557 18.2384 37.3544 18.7869 38.616C19.5549 40.3713 20.6519 41.8523 21.9958 42.8945C22.5992 43.3882 23.3397 43.6076 24.0802 43.6076C24.8207 43.6076 25.5612 43.3608 26.1646 42.8945C27.481 41.8523 28.6055 40.3713 29.3734 38.616C29.922 37.3544 30.2785 35.9831 30.4431 34.5295C30.4431 34.5021 30.4431 34.4472 30.4431 34.4198C30.4979 33.8713 30.5253 33.2953 30.5253 32.7468C30.5253 31.3481 30.3333 29.9768 29.9768 28.6878C29.9768 28.6878 29.9768 28.6878 30.0042 28.6878C32.0063 29.7574 34.365 30.3333 36.8059 30.3333C36.9979 30.3333 37.1625 30.3333 37.3544 30.3333C39.2469 30.2785 40.865 29.538 41.9895 28.2215C42.9768 27.0696 43.5253 25.5337 43.5253 23.8882C43.5528 22.2975 43.0042 20.7616 42.0169 19.5823ZM24.0802 24.3544C24.6836 24.3544 25.2595 24.6013 25.6983 25.0401C26.6034 26 27.289 27.2067 27.7827 28.5781C26.6857 28.8797 25.4241 29.0717 24.1076 29.0717C22.7912 29.0717 21.5295 28.9072 20.4325 28.5781C20.8987 27.2067 21.6118 26 22.5169 25.0401C22.9009 24.6013 23.4768 24.3544 24.0802 24.3544ZM19.7194 32.7743C19.7194 32.0612 19.7743 31.3207 19.884 30.635C21.1456 30.9916 22.5717 31.1835 24.0802 31.1835C25.5612 31.1835 26.9874 30.9916 28.2764 30.635C28.3861 31.3207 28.4409 32.0337 28.4409 32.7743C28.4409 33.1308 28.4135 33.4873 28.3861 33.8164C27.1793 34.6667 25.6709 35.1603 24.0802 35.1603C22.4895 35.1603 20.981 34.6941 19.7743 33.8164C19.7468 33.4599 19.7194 33.1308 19.7194 32.7743ZM24.0802 12.9177C26.4937 12.9177 28.4409 14.865 28.4409 17.2785C28.4409 19.692 26.4937 21.6392 24.0802 21.6392C21.6667 21.6392 19.7194 19.692 19.7194 17.2785C19.7194 14.865 21.6941 12.9177 24.0802 12.9177ZM11.3544 28.2764C11.1899 28.2764 11.0528 28.2764 10.8882 28.2764C8.00845 28.1667 6.71942 26.0274 6.71942 23.9156C6.71942 21.8312 8.00845 19.6645 10.8882 19.5548C11.0528 19.5548 11.1899 19.5548 11.3544 19.5548C15.3038 19.5548 18.8692 21.2827 20.3777 23.9156C18.8418 26.5485 15.3038 28.2764 11.3544 28.2764ZM24.8755 41.2489C24.4367 41.6055 23.7785 41.6055 23.3122 41.2489C21.9135 40.1519 20.8713 38.4515 20.2679 36.4768C21.4473 36.9705 22.7363 37.2447 24.0802 37.2447C25.4241 37.2447 26.7131 36.9705 27.8924 36.4768C27.3165 38.4789 26.2468 40.1519 24.8755 41.2489ZM37.2996 28.2764C37.135 28.2764 36.9979 28.2764 36.8333 28.2764C32.884 28.2764 29.3186 26.5485 27.8101 23.9156C29.3186 21.2827 32.8566 19.5548 36.8333 19.5548C36.9979 19.5548 37.135 19.5548 37.2996 19.5548C40.1793 19.6645 41.4684 21.8038 41.4684 23.9156C41.4684 26 40.1793 28.1667 37.2996 28.2764Z" fill="#F88F01"/>
<path d="M57.0464 24.903C56.4705 24.7384 55.9768 24.519 55.5654 24.2996C55.346 24.1625 55.2911 23.9156 55.3734 23.6962L55.7848 22.7912C55.8945 22.5169 56.2236 22.4346 56.4705 22.5718C56.7996 22.7637 57.1561 22.9283 57.5675 23.038C58.1709 23.23 58.7743 23.3397 59.3776 23.3397C60.0633 23.3397 60.557 23.23 60.8586 23.038C61.1878 22.846 61.3523 22.5718 61.3523 22.2427C61.3523 21.9958 61.27 21.8038 61.0781 21.6393C60.8861 21.4747 60.6392 21.3376 60.3376 21.2553C60.0359 21.1456 59.6245 21.0633 59.1308 20.9262C58.3629 20.7342 57.7046 20.5422 57.211 20.3777C56.7173 20.1857 56.2785 19.884 55.9219 19.4726C55.5654 19.0612 55.4008 18.5127 55.4008 17.827C55.4008 17.2237 55.5654 16.7026 55.8945 16.2089C56.2236 15.7152 56.6899 15.3313 57.3481 15.057C58.0063 14.7827 58.8017 14.6456 59.7342 14.6456C60.3924 14.6456 61.0232 14.7279 61.654 14.8924C62.1202 15.0021 62.5316 15.1667 62.8882 15.3587C63.1076 15.4684 63.2173 15.7426 63.1076 15.9895L62.751 16.8945C62.6413 17.1688 62.3397 17.2785 62.0928 17.1414C61.2975 16.7574 60.5021 16.5654 59.7068 16.5654C59.0485 16.5654 58.5548 16.6751 58.2257 16.8945C57.8966 17.114 57.7595 17.3882 57.7595 17.7448C57.7595 18.1013 57.9515 18.3481 58.308 18.5401C58.6646 18.7047 59.2405 18.8692 59.981 19.0338C60.7489 19.2258 61.4072 19.4178 61.9008 19.5823C62.3945 19.7743 62.8333 20.0486 63.1899 20.4599C63.5464 20.8713 63.711 21.3924 63.711 22.0781C63.711 22.654 63.5464 23.2026 63.2173 23.6688C62.8882 24.1625 62.3945 24.5464 61.7363 24.8207C61.0781 25.095 60.2827 25.2321 59.3502 25.2321C58.5823 25.2321 57.8143 25.1224 57.0464 24.903Z" fill="#171638"/>
<path d="M82.0042 17.9367C82.6076 18.5127 82.9093 19.3903 82.9093 20.5422V24.5464C82.9093 24.8207 82.6899 25.0401 82.4156 25.0401H81.0992C80.8249 25.0401 80.6055 24.8207 80.6055 24.5464V20.8713C80.6055 20.2405 80.4684 19.7743 80.1941 19.4726C79.9198 19.1709 79.5359 19.0064 79.0148 19.0064C78.4388 19.0064 77.9726 19.1709 77.6435 19.5275C77.3143 19.884 77.1224 20.4051 77.1224 21.1182V24.519C77.1224 24.7933 76.9029 25.0127 76.6287 25.0127H75.3122C75.038 25.0127 74.8186 24.7933 74.8186 24.519V17.635C74.8186 17.3608 75.038 17.1414 75.3122 17.1414H76.519C76.7932 17.1414 77.0127 17.3608 77.0127 17.635V18.0739C77.3143 17.7448 77.6983 17.4979 78.1371 17.3059C78.5759 17.114 79.0696 17.0317 79.6181 17.0317C80.6055 17.0591 81.4008 17.3608 82.0042 17.9367Z" fill="#171638"/>
<path d="M99.2827 24.2722C99.365 24.519 99.2553 24.7933 99.0359 24.8756C98.8987 24.9304 98.7616 24.9853 98.597 25.0127C98.2679 25.095 97.9388 25.1498 97.5823 25.1498C96.6498 25.1498 95.9093 24.903 95.4156 24.4367C94.9219 23.9705 94.6477 23.2574 94.6477 22.3249V15.9072C94.6477 15.6329 94.8671 15.4135 95.1413 15.4135H96.4578C96.7321 15.4135 96.9515 15.6329 96.9515 15.9072V17.3334H98.4051C98.6793 17.3334 98.8987 17.5528 98.8987 17.827V18.595C98.8987 18.8692 98.6793 19.0886 98.4051 19.0886H96.9515V22.2975C96.9515 22.6266 97.0337 22.8735 97.1983 23.0654C97.3629 23.2574 97.6097 23.3397 97.9114 23.3397C98.0759 23.3397 98.2405 23.3123 98.4051 23.2574C98.6519 23.1751 98.9261 23.2848 99.0359 23.5317L99.2827 24.2722Z" fill="#171638"/>
<path d="M108.251 17.6625V24.5464C108.251 24.8207 108.032 25.0401 107.757 25.0401H106.551C106.276 25.0401 106.057 24.8207 106.057 24.5464V24.1351C105.481 24.8207 104.686 25.1498 103.589 25.1498C102.848 25.1498 102.19 24.9853 101.587 24.6561C100.983 24.327 100.517 23.8608 100.188 23.23C99.8587 22.5992 99.6667 21.9135 99.6667 21.0907C99.6667 20.2954 99.8312 19.5823 100.188 18.9515C100.544 18.3207 101.011 17.8545 101.587 17.5253C102.19 17.1962 102.848 17.0317 103.589 17.0317C104.603 17.0317 105.371 17.3608 105.947 17.9916V17.635C105.947 17.3608 106.167 17.1414 106.441 17.1414H107.757C108.032 17.1962 108.251 17.4156 108.251 17.6625ZM105.426 22.7089C105.81 22.3249 106.002 21.7764 106.002 21.1182C106.002 20.4599 105.81 19.9389 105.426 19.5275C105.042 19.1435 104.576 18.9241 104 18.9241C103.424 18.9241 102.93 19.1161 102.546 19.5275C102.162 19.9114 101.97 20.4599 101.97 21.1182C101.97 21.7764 102.162 22.2975 102.546 22.7089C102.93 23.0929 103.397 23.3123 104 23.3123C104.576 23.2848 105.042 23.0929 105.426 22.7089Z" fill="#171638"/>
<path d="M114.724 24.2722C114.806 24.519 114.696 24.7933 114.477 24.8756C114.34 24.9304 114.203 24.9853 114.038 25.0127C113.709 25.095 113.38 25.1498 113.023 25.1498C112.091 25.1498 111.35 24.903 110.857 24.4367C110.363 23.9705 110.089 23.2574 110.089 22.3249V15.9072C110.089 15.6329 110.308 15.4135 110.582 15.4135H111.899C112.173 15.4135 112.392 15.6329 112.392 15.9072V17.3334H113.846C114.12 17.3334 114.34 17.5528 114.34 17.827V18.595C114.34 18.8692 114.12 19.0886 113.846 19.0886H112.392V22.2975C112.392 22.6266 112.475 22.8735 112.639 23.0654C112.804 23.2574 113.051 23.3397 113.352 23.3397C113.517 23.3397 113.681 23.3123 113.846 23.2574C114.093 23.1751 114.367 23.2848 114.477 23.5317L114.724 24.2722Z" fill="#171638"/>
<path d="M120.73 23.1477C120.922 23.0654 121.114 22.9831 121.279 22.846C121.47 22.7089 121.745 22.7089 121.937 22.9009L122.513 23.5317C122.705 23.7511 122.677 24.0528 122.458 24.2448C121.745 24.8481 120.785 25.1498 119.578 25.1498C118.7 25.1498 117.905 24.9853 117.219 24.6287C116.534 24.2722 116.013 23.8059 115.629 23.1751C115.245 22.5718 115.08 21.8587 115.08 21.0907C115.08 20.3228 115.272 19.6372 115.629 19.0064C115.985 18.3756 116.506 17.9093 117.137 17.5528C117.768 17.1962 118.508 17.0317 119.304 17.0317C120.044 17.0317 120.73 17.1962 121.361 17.4979C121.964 17.827 122.458 18.2658 122.842 18.8692C123.226 19.4726 123.39 20.1857 123.39 21.0085L117.576 22.1329C117.741 22.5169 118.015 22.8186 118.371 23.0106C118.728 23.2026 119.167 23.3123 119.688 23.3123C120.044 23.3397 120.428 23.2848 120.73 23.1477ZM117.905 19.3629C117.549 19.7469 117.357 20.2405 117.329 20.8988L121.169 20.1583C121.059 19.7469 120.84 19.4178 120.511 19.1709C120.181 18.9241 119.77 18.8144 119.304 18.8144C118.728 18.787 118.262 18.9789 117.905 19.3629Z" fill="#171638"/>
<path d="M56.0316 27.481C56.0316 27.2068 56.251 26.9874 56.5253 26.9874H60.6941C61.8186 26.9874 62.7785 27.2068 63.6287 27.6182C64.4789 28.0296 65.1371 28.6329 65.6308 29.4009C66.097 30.1688 66.3439 31.0739 66.3439 32.0886C66.3439 33.1034 66.097 34.0085 65.6308 34.7764C65.1645 35.5443 64.5063 36.1477 63.6287 36.5591C62.7785 36.9705 61.7911 37.1899 60.6941 37.1899H56.5253C56.251 37.1899 56.0316 36.9705 56.0316 36.6962V27.481ZM60.5569 35.2975C61.5717 35.2975 62.3945 35.0232 62.9979 34.4473C63.6013 33.8713 63.9029 33.1034 63.9029 32.1161C63.9029 31.1287 63.6013 30.3608 62.9979 29.7848C62.3945 29.2089 61.5717 28.9346 60.5569 28.9346H58.884C58.6097 28.9346 58.3903 29.154 58.3903 29.4283V34.8038C58.3903 35.0781 58.6097 35.2975 58.884 35.2975H60.5569Z" fill="#171638"/>
<path d="M68.7848 36.3945C68.0717 35.7089 67.7426 34.8038 67.7426 33.6245V29.3186C67.7426 29.0443 67.962 28.8249 68.2363 28.8249H69.5802C69.8544 28.8249 70.0738 29.0443 70.0738 29.3186V33.5422C70.0738 34.2004 70.211 34.6941 70.5127 35.0232C70.7869 35.3523 71.2257 35.5169 71.7743 35.5169C72.3228 35.5169 72.7342 35.3523 73.0084 35.0232C73.2827 34.6941 73.4198 34.2004 73.4198 33.5422V29.3186C73.4198 29.0443 73.6392 28.8249 73.9135 28.8249H75.23C75.5042 28.8249 75.7236 29.0443 75.7236 29.3186V33.6245C75.7236 34.8038 75.3671 35.7363 74.6814 36.3945C73.9684 37.0802 73.0084 37.4093 71.7468 37.4093C70.4578 37.4093 69.4705 37.0527 68.7848 36.3945Z" fill="#171638"/>
<path d="M78.0274 26.384H79.3439C79.6181 26.384 79.8375 26.6034 79.8375 26.8776V36.7511C79.8375 37.0253 79.6181 37.2447 79.3439 37.2447H78.0274C77.7532 37.2447 77.5338 37.0253 77.5338 36.7511V26.8776C77.5338 26.6034 77.7532 26.384 78.0274 26.384Z" fill="#171638"/>
<path d="M83.2658 36.8334C82.6076 36.4768 82.0865 36.0106 81.7025 35.3798C81.3186 34.7764 81.1266 34.0633 81.1266 33.2954C81.1266 32.5275 81.3186 31.8144 81.7025 31.211C82.0865 30.6076 82.6076 30.114 83.2658 29.7574C83.9241 29.4009 84.692 29.2363 85.5148 29.2363C86.3376 29.2363 87.0781 29.4009 87.6814 29.7574C88.1477 30.0043 88.5042 30.3608 88.7785 30.7722C88.9431 31.019 88.8608 31.3481 88.6139 31.4853L87.6814 31.9789C87.462 32.0886 87.2152 32.0612 87.0506 31.8692C86.6667 31.3756 86.1456 31.1287 85.4874 31.1287C84.884 31.1287 84.3903 31.3207 84.0063 31.7047C83.6224 32.0886 83.4304 32.6372 83.4304 33.2954C83.4304 33.9811 83.6224 34.5022 84.0063 34.8861C84.3903 35.2701 84.884 35.4621 85.4874 35.4621C86.1456 35.4621 86.6667 35.2152 87.0506 34.7216C87.1878 34.5296 87.462 34.5022 87.654 34.6119L88.5865 35.133C88.8333 35.2701 88.9156 35.5992 88.7511 35.846C88.4768 36.2574 88.1203 36.5865 87.654 36.8334C87.0232 37.1899 86.3101 37.3545 85.4874 37.3545C84.692 37.3545 83.9515 37.1899 83.2658 36.8334Z" fill="#171638"/>
<path d="M95.1139 35.3524C95.3059 35.2701 95.4979 35.1878 95.6625 35.0507C95.8544 34.9135 96.1287 34.9135 96.3207 35.1055L96.8966 35.7363C97.0886 35.9557 97.0612 36.2574 96.8418 36.4494C96.1287 37.0528 95.1688 37.3545 93.962 37.3545C93.0844 37.3545 92.289 37.1899 91.6034 36.8334C90.9177 36.4768 90.3966 36.0106 90.0127 35.3798C89.6287 34.7764 89.4642 34.0633 89.4642 33.2954C89.4642 32.5275 89.6561 31.8418 90.0127 31.211C90.3692 30.5802 90.8903 30.114 91.5211 29.7574C92.1519 29.4009 92.865 29.2363 93.6878 29.2363C94.4283 29.2363 95.1139 29.4009 95.7447 29.7026C96.3481 30.0317 96.8418 30.4705 97.2258 31.0739C97.6097 31.6773 97.7743 32.3903 97.7743 33.2131L91.9599 34.3376C92.1245 34.7216 92.3988 35.0232 92.7553 35.2152C93.1118 35.4072 93.5507 35.5169 94.0718 35.5169C94.4283 35.5169 94.7848 35.4621 95.1139 35.3524ZM92.2616 31.5401C91.9051 31.9241 91.7131 32.4178 91.6857 33.076L95.5253 32.3355C95.4156 31.9241 95.1962 31.595 94.8671 31.3481C94.538 31.1013 94.1266 30.9916 93.6604 30.9916C93.1118 30.9916 92.6456 31.1562 92.2616 31.5401Z" fill="#171638"/>
<path d="M73.2827 17.7173V24.5464C73.2827 24.8481 73.0359 25.0949 72.7342 25.0949H71.6371C71.3355 25.0949 71.0886 24.8481 71.0886 24.5464V24.1899C70.5127 24.8755 69.6899 25.2321 68.6203 25.2321C67.8798 25.2321 67.1941 25.0675 66.5907 24.7384C65.9874 24.4093 65.5211 23.9156 65.1646 23.3122C64.808 22.6814 64.6435 21.9684 64.6435 21.1456C64.6435 20.3228 64.808 19.6097 65.1646 18.9789C65.5211 18.3481 65.9874 17.8819 66.5907 17.5527C67.1941 17.2236 67.8798 17.0591 68.6203 17.0591C69.635 17.0591 70.4304 17.3882 71.0063 18.019V17.7173C71.0063 17.4156 71.2532 17.1688 71.5549 17.1688H72.7616C73.0359 17.1688 73.2827 17.4156 73.2827 17.7173ZM67.3861 15.6603C67.0844 15.4135 66.865 15.1118 66.7279 14.7553C66.5907 14.3987 66.865 14.0148 67.249 14.0148H67.6055C67.8249 14.0148 68.0443 14.1519 68.0992 14.3713C68.154 14.5359 68.2637 14.673 68.4009 14.7827C68.6477 14.9747 68.9494 15.057 69.3059 15.057C69.6625 15.057 69.9642 14.9747 70.211 14.7827C70.3481 14.673 70.4578 14.5359 70.5127 14.3713C70.595 14.1519 70.7869 14.0148 71.0063 14.0148H71.3629C71.7469 14.0148 72.0211 14.3987 71.884 14.7553C71.7469 15.1118 71.5274 15.4135 71.2258 15.6603C70.7321 16.0717 70.0739 16.2637 69.3059 16.2637C68.538 16.2637 67.9072 16.0717 67.3861 15.6603ZM70.4578 22.7363C70.8418 22.3249 71.0338 21.8038 71.0338 21.1456C71.0338 20.4873 70.8418 19.9388 70.4578 19.5549C70.0739 19.1435 69.5802 18.9515 69.0042 18.9515C68.4009 18.9515 67.9346 19.1435 67.5506 19.5549C67.1667 19.9662 66.9747 20.4873 66.9747 21.1456C66.9747 21.8038 67.1667 22.3523 67.5506 22.7363C67.9346 23.1477 68.4283 23.3397 69.0042 23.3397C69.5802 23.3397 70.0739 23.1477 70.4578 22.7363Z" fill="#171638"/>
<path d="M93.0021 17.7173V24.5464C93.0021 24.8481 92.7553 25.0949 92.4536 25.0949H91.3566C91.0549 25.0949 90.808 24.8481 90.808 24.5464V24.1899C90.2321 24.8755 89.4093 25.2321 88.3397 25.2321C87.5992 25.2321 86.9135 25.0675 86.3101 24.7384C85.7068 24.4093 85.2405 23.9156 84.884 23.3122C84.5274 22.6814 84.3629 21.9684 84.3629 21.1456C84.3629 20.3228 84.5274 19.6097 84.884 18.9789C85.2405 18.3481 85.7068 17.8819 86.3101 17.5527C86.9135 17.2236 87.5992 17.0591 88.3397 17.0591C89.3544 17.0591 90.1498 17.3882 90.7257 18.019V17.7173C90.7257 17.4156 90.9726 17.1688 91.2743 17.1688H92.481C92.7553 17.1688 93.0021 17.4156 93.0021 17.7173ZM87.1055 15.6603C86.8038 15.4135 86.5844 15.1118 86.4473 14.7553C86.3101 14.3987 86.5844 14.0148 86.9684 14.0148H87.3249C87.5443 14.0148 87.7637 14.1519 87.8186 14.3713C87.8734 14.5359 87.9831 14.673 88.1203 14.7827C88.3671 14.9747 88.6688 15.057 89.0253 15.057C89.3819 15.057 89.6836 14.9747 89.9304 14.7827C90.0675 14.673 90.1772 14.5359 90.2321 14.3713C90.3144 14.1519 90.5063 14.0148 90.7257 14.0148H91.0823C91.4663 14.0148 91.7405 14.3987 91.6034 14.7553C91.4663 15.1118 91.2469 15.4135 90.9452 15.6603C90.4515 16.0717 89.7933 16.2637 89.0253 16.2637C88.2574 16.2637 87.5992 16.0717 87.1055 15.6603ZM90.1498 22.7363C90.5338 22.3249 90.7257 21.8038 90.7257 21.1456C90.7257 20.4873 90.5338 19.9388 90.1498 19.5549C89.7658 19.1435 89.2722 18.9515 88.6962 18.9515C88.0928 18.9515 87.6266 19.1435 87.2426 19.5549C86.8587 19.9662 86.6667 20.4873 86.6667 21.1456C86.6667 21.8038 86.8587 22.3523 87.2426 22.7363C87.6266 23.1477 88.1203 23.3397 88.6962 23.3397C89.2996 23.3397 89.7658 23.1477 90.1498 22.7363Z" fill="#171638"/>
</svg>
