<svg width="13" height="13" viewBox="0 0 13 13" fill="none" xmlns="http://www.w3.org/2000/svg">
<path d="M6.27328 0.799643C6.48928 0.359755 7.09031 0.359754 7.30631 0.799643L8.75279 3.74539C8.83711 3.9171 8.9944 4.03667 9.17655 4.0675L12.3013 4.59652C12.7679 4.67552 12.9536 5.27357 12.6205 5.62443L10.3897 7.97402C10.2597 8.11098 10.1996 8.30445 10.2279 8.49521L10.7126 11.7679C10.785 12.2566 10.2987 12.6262 9.87685 12.4032L7.05169 10.9096C6.88701 10.8225 6.69258 10.8225 6.5279 10.9096L3.70274 12.4032C3.28086 12.6262 2.79462 12.2566 2.867 11.7679L3.3517 8.49521C3.37996 8.30445 3.31988 8.11098 3.18984 7.97402L0.959097 5.62443C0.625979 5.27357 0.811706 4.67552 1.27832 4.59652L4.40304 4.0675C4.58519 4.03667 4.74248 3.9171 4.8268 3.74539L6.27328 0.799643Z" fill="#F88F01"/>
</svg>
