<svg width="77" height="84" viewBox="0 0 77 84" fill="none" xmlns="http://www.w3.org/2000/svg">
<path d="M32.3825 3.6293C36.1675 1.45722 40.8325 1.45722 44.6175 3.6293L68.8916 17.5593C72.6753 19.7306 75 23.7389 75 28.0701V55.9301C75 60.2613 72.6753 64.2697 68.8916 66.441L44.6175 80.3709C40.8325 82.543 36.1675 82.543 32.3825 80.3709L8.10841 66.441C4.32473 64.2697 2 60.2613 2 55.9301V28.0701C2 23.7389 4.32473 19.7306 8.10841 17.5593L32.3825 3.6293Z" stroke="#F88F01" stroke-width="4"/>
<path d="M38.5 84.0002C36.0439 84.0002 33.5878 83.3688 31.387 82.1058L7.11295 68.1759C2.71144 65.65 0 60.982 0 55.9303V28.0704C0 23.0187 2.71144 18.3507 7.11296 15.8248L31.387 1.89488C33.5878 0.631956 36.0439 0.00049165 38.5 0.000488281L38.5 84.0002Z" fill="#F88F01"/>
</svg>
