<svg width="96" height="100" viewBox="0 0 96 100" fill="none" xmlns="http://www.w3.org/2000/svg">
<path d="M0.710876 20C0.710876 8.95431 9.66518 0 20.7109 0H75.7109C86.7566 0 95.7109 8.95431 95.7109 20V79.9998C95.7109 91.0455 86.7566 99.9998 75.7109 99.9998H20.7109C9.66518 99.9998 0.710876 91.0455 0.710876 79.9998V20Z" fill="#FF9500" fill-opacity="0.15"/>
<path fill-rule="evenodd" clip-rule="evenodd" d="M20.7109 40.0499C20.7109 36.4416 22.6476 33.1073 25.7916 31.3031L43.1302 21.3531C46.2741 19.549 50.1476 19.549 53.2916 21.3531L70.6302 31.3031C73.7741 33.1073 75.7109 36.4416 75.7109 40.0499V59.9499C75.7109 63.5582 73.7741 66.8925 70.6302 68.6967L53.2916 78.6467C51.7196 79.5488 49.9652 79.9998 48.2109 79.9998C46.4565 79.9998 44.7022 79.5489 43.1302 78.6468L25.7916 68.6969C22.6476 66.8927 20.7109 63.5584 20.7109 59.9501V40.0499ZM51.8695 23.8312L69.2081 33.7812C71.4694 35.0789 72.8537 37.4708 72.8537 40.0499V59.9499C72.8537 62.529 71.4694 64.9209 69.2081 66.2186L51.8695 76.1686C50.7379 76.818 49.4744 77.1427 48.2109 77.1427L48.2109 22.8571C49.4744 22.8571 50.7379 23.1818 51.8695 23.8312Z" fill="#FF980C"/>
</svg>
