<svg width="77" height="84" viewBox="0 0 77 84" fill="none" xmlns="http://www.w3.org/2000/svg">
<path d="M32.3825 3.62931C36.1675 1.45722 40.8325 1.45722 44.6175 3.62931L68.8916 17.5593C72.6752 19.7306 75 23.739 75 28.0702V55.9302C75 60.2615 72.6752 64.2699 68.8916 66.4412L44.6175 80.3712C40.8325 82.5433 36.1675 82.5433 32.3825 80.3712L8.10841 66.4412C4.32474 64.2699 2 60.2615 2 55.9302V28.0702C2 23.739 4.32474 19.7306 8.10841 17.5593L32.3825 3.62931Z" stroke="#F88F01" stroke-width="4"/>
<path d="M38.5 0.000488281V34.0005C38.5 38.4188 34.9183 42.0005 30.5 42.0005L0 42.0005V28.0705C0 23.0187 2.71144 18.3508 7.11295 15.8249L31.387 1.89489C33.5878 0.631955 36.0439 0.000488281 38.5 0.000488281Z" fill="#F88F01"/>
</svg>
