<svg width="96" height="100" viewBox="0 0 96 100" fill="none" xmlns="http://www.w3.org/2000/svg">
<path d="M0.144531 20C0.144531 8.9543 9.09884 0 20.1445 0H75.1445C86.1902 0 95.1445 8.95431 95.1445 20V80C95.1445 91.0457 86.1902 100 75.1445 100H20.1445C9.09883 100 0.144531 91.0457 0.144531 80V20Z" fill="#FF9500" fill-opacity="0.15"/>
<path d="M52.7252 21.3531C49.5813 19.549 45.7078 19.549 42.5639 21.3531L25.2252 31.3031C22.0813 33.1073 20.1445 36.4416 20.1445 40.05V59.95C20.1445 63.5584 22.0813 66.8927 25.2252 68.6968L42.5639 78.6469C45.7078 80.451 49.5813 80.451 52.7252 78.6469L70.0639 68.6968C73.2078 66.8927 75.1445 63.5584 75.1445 59.95V40.05C75.1445 36.4416 73.2078 33.1073 70.0639 31.3031L52.7252 21.3531Z" fill="#FF980C"/>
<path fill-rule="evenodd" clip-rule="evenodd" d="M58.8053 45.1884L44.6367 59.357L36.4838 51.2041L39.5142 48.1736L44.6367 53.2961L55.7749 42.158L58.8053 45.1884Z" fill="white"/>
</svg>
