<svg width="77" height="84" viewBox="0 0 77 84" fill="none" xmlns="http://www.w3.org/2000/svg">
<path d="M32.3825 3.62906C36.1675 1.45698 40.8325 1.45698 44.6175 3.62906L68.8916 17.559C72.6753 19.7304 75 23.7387 75 28.07V55.9299C75 60.2612 72.6753 64.2695 68.8916 66.4408L44.6175 80.3708C40.8325 82.5429 36.1675 82.5429 32.3825 80.3708L8.10841 66.4408C4.32473 64.2695 2 60.2612 2 55.9299V28.07C2 23.7387 4.32474 19.7304 8.10841 17.559L32.3825 3.62906Z" stroke="#F88F01" stroke-width="4"/>
<path d="M77 42.0002V55.9302C77 60.9819 74.2886 65.6499 69.887 68.1757L45.613 82.1057C41.2114 84.6316 35.7886 84.6316 31.387 82.1057L7.11295 68.1757C2.71144 65.6499 0 60.9819 0 55.9302V28.0702C0 23.0185 2.71144 18.3505 7.11296 15.8246L31.387 1.89464C33.5878 0.63171 36.0439 0.000244141 38.5 0.000244141V34.0002C38.5 38.4185 42.0817 42.0002 46.5 42.0002H77Z" fill="#F88F01"/>
</svg>
