<svg width="96" height="100" viewBox="0 0 96 100" fill="none" xmlns="http://www.w3.org/2000/svg">
<path d="M0.855408 20C0.855408 8.95432 9.80971 0 20.8554 0H75.8554C86.9011 0 95.8554 8.95431 95.8554 20V80.0001C95.8554 91.0458 86.9011 100 75.8554 100H20.8554C9.80971 100 0.855408 91.0458 0.855408 80.0001V20Z" fill="#FF9500" fill-opacity="0.15"/>
<path fill-rule="evenodd" clip-rule="evenodd" d="M20.8554 40.05C20.8554 36.4416 22.7922 33.1073 25.9361 31.3031L43.2747 21.3531C46.4187 19.549 50.2922 19.549 53.4361 21.3531L70.7747 31.3031C73.9187 33.1073 75.8554 36.4416 75.8554 40.05V59.95C75.8554 60.1754 75.8478 60.4 75.8329 60.623C75.793 61.2182 75.7005 61.8035 75.5588 62.3732C74.904 65.0067 73.198 67.3064 70.7747 68.697L53.4361 78.6469C50.2922 80.4511 46.4187 80.4511 43.2747 78.6469L25.9361 68.697C22.7922 66.8928 20.8554 63.5585 20.8554 59.9501V40.05ZM52.014 23.8312L69.3526 33.7812C71.614 35.0789 72.9983 37.4708 72.9983 40.05V50.0002H54.0697C50.9138 50.0002 48.3554 47.4418 48.3554 44.2859V22.8571C49.6189 22.8571 50.8824 23.1818 52.014 23.8312Z" fill="#FF980C"/>
</svg>
