<svg width="96" height="100" viewBox="0 0 96 100" fill="none" xmlns="http://www.w3.org/2000/svg">
<path d="M0.210907 20C0.210907 8.95431 9.16521 0 20.2109 0H75.2109C86.2566 0 95.2109 8.95431 95.2109 20V80C95.2109 91.0457 86.2566 100 75.2109 100H20.2109C9.16521 100 0.210907 91.0457 0.210907 80V20Z" fill="#FF9500" fill-opacity="0.15"/>
<path fill-rule="evenodd" clip-rule="evenodd" d="M20.2109 40.05C20.2109 36.4416 22.1477 33.1073 25.2916 31.3032L42.6302 21.3531C45.7742 19.549 49.6476 19.549 52.7916 21.3531L70.1302 31.3032C73.2742 33.1073 75.2109 36.4416 75.2109 40.05V59.95C75.2109 63.5584 73.2742 66.8927 70.1302 68.6969L52.7916 78.6469C49.6476 80.4511 45.7742 80.4511 42.6302 78.6469L25.2916 68.6969C22.1477 66.8927 20.2109 63.5584 20.2109 59.95V40.05ZM51.3695 23.8312L68.7081 33.7812C70.9695 35.0789 72.3538 37.4708 72.3538 40.05V59.95C72.3538 62.5292 70.9695 64.9211 68.7081 66.2188L51.3695 76.1688C49.1063 77.4676 46.3155 77.4676 44.0523 76.1688L26.7137 66.2188C24.4524 64.9211 23.0681 62.5292 23.0681 59.95V50.0002L41.9966 50.0002C45.1525 50.0002 47.7109 47.4418 47.7109 44.2859V22.8571C48.9744 22.8571 50.2379 23.1818 51.3695 23.8312Z" fill="#FF980C"/>
</svg>
